<mxfile host="Electron" modified="2024-03-20T11:35:25.539Z" agent="Mozilla/5.0 (Windows NT 10.0; Win64; x64) AppleWebKit/537.36 (KHTML, like Gecko) draw.io/24.0.4 Chrome/120.0.6099.109 Electron/28.1.0 Safari/537.36" etag="fDjngWv2BxD9XIOQzwLG" version="24.0.4" type="device">
  <diagram name="PÃ¡gina-1" id="wbtI4HlbwFGoZa4TPXoN">
    <mxGraphModel dx="2743" dy="2562" grid="1" gridSize="10" guides="1" tooltips="1" connect="1" arrows="1" fold="1" page="1" pageScale="1" pageWidth="827" pageHeight="1169" math="0" shadow="0">
      <root>
        <mxCell id="0" />
        <mxCell id="1" parent="0" />
        <mxCell id="aFBxvqd-sywQT1AkZxLm-117" style="edgeStyle=orthogonalEdgeStyle;rounded=0;orthogonalLoop=1;jettySize=auto;html=1;exitX=1;exitY=0.5;exitDx=0;exitDy=0;entryX=0;entryY=0.5;entryDx=0;entryDy=0;fontSize=20;fontStyle=1;strokeWidth=2;" parent="1" source="aFBxvqd-sywQT1AkZxLm-2" target="aFBxvqd-sywQT1AkZxLm-110" edge="1">
          <mxGeometry relative="1" as="geometry">
            <Array as="points">
              <mxPoint x="750" y="265" />
              <mxPoint x="750" y="133" />
            </Array>
          </mxGeometry>
        </mxCell>
        <mxCell id="aFBxvqd-sywQT1AkZxLm-2" value="" style="rounded=0;whiteSpace=wrap;html=1;fontSize=20;fontStyle=1;strokeWidth=2;" parent="1" vertex="1">
          <mxGeometry x="201.00000000000003" y="209.5" width="200" height="110" as="geometry" />
        </mxCell>
        <mxCell id="aFBxvqd-sywQT1AkZxLm-3" value="" style="endArrow=none;html=1;rounded=0;entryX=1.007;entryY=0.365;entryDx=0;entryDy=0;exitX=0;exitY=0.362;exitDx=0;exitDy=0;exitPerimeter=0;entryPerimeter=0;fontSize=20;fontStyle=1;strokeWidth=2;" parent="1" source="aFBxvqd-sywQT1AkZxLm-2" target="aFBxvqd-sywQT1AkZxLm-2" edge="1">
          <mxGeometry width="50" height="50" relative="1" as="geometry">
            <mxPoint x="237" y="319.5" as="sourcePoint" />
            <mxPoint x="237" y="209.5" as="targetPoint" />
          </mxGeometry>
        </mxCell>
        <mxCell id="aFBxvqd-sywQT1AkZxLm-6" value="" style="endArrow=none;html=1;rounded=0;entryX=1;entryY=0.75;entryDx=0;entryDy=0;exitX=0;exitY=0.75;exitDx=0;exitDy=0;fontSize=20;fontStyle=1;strokeWidth=2;" parent="1" edge="1">
          <mxGeometry width="50" height="50" relative="1" as="geometry">
            <mxPoint x="201.00000000000003" y="280" as="sourcePoint" />
            <mxPoint x="401" y="280" as="targetPoint" />
          </mxGeometry>
        </mxCell>
        <mxCell id="aFBxvqd-sywQT1AkZxLm-7" value="" style="endArrow=none;html=1;rounded=0;entryX=0.25;entryY=0;entryDx=0;entryDy=0;fontSize=20;fontStyle=1;strokeWidth=2;" parent="1" target="aFBxvqd-sywQT1AkZxLm-2" edge="1">
          <mxGeometry width="50" height="50" relative="1" as="geometry">
            <mxPoint x="251" y="249.5" as="sourcePoint" />
            <mxPoint x="561" y="299.5" as="targetPoint" />
          </mxGeometry>
        </mxCell>
        <mxCell id="aFBxvqd-sywQT1AkZxLm-8" value="" style="endArrow=none;html=1;rounded=0;entryX=0.25;entryY=0;entryDx=0;entryDy=0;fontSize=20;fontStyle=1;strokeWidth=2;" parent="1" edge="1">
          <mxGeometry width="50" height="50" relative="1" as="geometry">
            <mxPoint x="351" y="249.5" as="sourcePoint" />
            <mxPoint x="351" y="209.5" as="targetPoint" />
          </mxGeometry>
        </mxCell>
        <mxCell id="aFBxvqd-sywQT1AkZxLm-9" value="" style="endArrow=none;html=1;rounded=0;entryX=0.25;entryY=0;entryDx=0;entryDy=0;fontSize=20;fontStyle=1;strokeWidth=2;" parent="1" edge="1">
          <mxGeometry width="50" height="50" relative="1" as="geometry">
            <mxPoint x="352" y="319.5" as="sourcePoint" />
            <mxPoint x="352" y="279.5" as="targetPoint" />
          </mxGeometry>
        </mxCell>
        <mxCell id="aFBxvqd-sywQT1AkZxLm-10" value="" style="endArrow=none;html=1;rounded=0;entryX=0.25;entryY=0;entryDx=0;entryDy=0;fontSize=20;fontStyle=1;strokeWidth=2;" parent="1" edge="1">
          <mxGeometry width="50" height="50" relative="1" as="geometry">
            <mxPoint x="251" y="320.5" as="sourcePoint" />
            <mxPoint x="251" y="280.5" as="targetPoint" />
          </mxGeometry>
        </mxCell>
        <mxCell id="aFBxvqd-sywQT1AkZxLm-56" style="edgeStyle=orthogonalEdgeStyle;rounded=0;orthogonalLoop=1;jettySize=auto;html=1;exitX=1;exitY=0.5;exitDx=0;exitDy=0;entryX=0;entryY=0.5;entryDx=0;entryDy=0;fontSize=20;fontStyle=1;strokeWidth=2;" parent="1" source="aFBxvqd-sywQT1AkZxLm-11" target="aFBxvqd-sywQT1AkZxLm-32" edge="1">
          <mxGeometry relative="1" as="geometry" />
        </mxCell>
        <mxCell id="aFBxvqd-sywQT1AkZxLm-11" value="&lt;font style=&quot;font-size: 20px;&quot;&gt;A&lt;/font&gt;" style="rounded=0;whiteSpace=wrap;html=1;fontSize=20;fontStyle=1;strokeWidth=2;" parent="1" vertex="1">
          <mxGeometry x="202.4" y="9.5" width="200" height="110" as="geometry" />
        </mxCell>
        <mxCell id="aFBxvqd-sywQT1AkZxLm-12" value="" style="endArrow=none;html=1;rounded=0;entryX=1.007;entryY=0.365;entryDx=0;entryDy=0;exitX=0;exitY=0.362;exitDx=0;exitDy=0;exitPerimeter=0;entryPerimeter=0;elbow=vertical;fontSize=20;fontStyle=1;strokeWidth=2;" parent="1" source="aFBxvqd-sywQT1AkZxLm-11" target="aFBxvqd-sywQT1AkZxLm-11" edge="1">
          <mxGeometry width="50" height="50" relative="1" as="geometry">
            <mxPoint x="238.39999999999998" y="119.5" as="sourcePoint" />
            <mxPoint x="238.39999999999998" y="9.5" as="targetPoint" />
          </mxGeometry>
        </mxCell>
        <mxCell id="aFBxvqd-sywQT1AkZxLm-13" value="" style="endArrow=none;html=1;rounded=0;entryX=1;entryY=0.75;entryDx=0;entryDy=0;exitX=0;exitY=0.75;exitDx=0;exitDy=0;fontSize=20;fontStyle=1;strokeWidth=2;" parent="1" edge="1">
          <mxGeometry width="50" height="50" relative="1" as="geometry">
            <mxPoint x="202.4" y="80" as="sourcePoint" />
            <mxPoint x="402.4" y="80" as="targetPoint" />
          </mxGeometry>
        </mxCell>
        <mxCell id="aFBxvqd-sywQT1AkZxLm-14" value="" style="endArrow=none;html=1;rounded=0;entryX=0.25;entryY=0;entryDx=0;entryDy=0;fontSize=20;fontStyle=1;strokeWidth=2;" parent="1" target="aFBxvqd-sywQT1AkZxLm-11" edge="1">
          <mxGeometry width="50" height="50" relative="1" as="geometry">
            <mxPoint x="252.39999999999998" y="49.5" as="sourcePoint" />
            <mxPoint x="562.4" y="99.5" as="targetPoint" />
          </mxGeometry>
        </mxCell>
        <mxCell id="aFBxvqd-sywQT1AkZxLm-15" value="" style="endArrow=none;html=1;rounded=0;entryX=0.25;entryY=0;entryDx=0;entryDy=0;fontSize=20;fontStyle=1;strokeWidth=2;" parent="1" edge="1">
          <mxGeometry width="50" height="50" relative="1" as="geometry">
            <mxPoint x="352.4" y="49.5" as="sourcePoint" />
            <mxPoint x="352.4" y="9.5" as="targetPoint" />
          </mxGeometry>
        </mxCell>
        <mxCell id="aFBxvqd-sywQT1AkZxLm-16" value="" style="endArrow=none;html=1;rounded=0;entryX=0.25;entryY=0;entryDx=0;entryDy=0;fontSize=20;fontStyle=1;strokeWidth=2;" parent="1" edge="1">
          <mxGeometry width="50" height="50" relative="1" as="geometry">
            <mxPoint x="353.4" y="119.5" as="sourcePoint" />
            <mxPoint x="353.4" y="79.5" as="targetPoint" />
          </mxGeometry>
        </mxCell>
        <mxCell id="aFBxvqd-sywQT1AkZxLm-17" value="" style="endArrow=none;html=1;rounded=0;entryX=0.25;entryY=0;entryDx=0;entryDy=0;fontSize=20;fontStyle=1;strokeWidth=2;" parent="1" edge="1">
          <mxGeometry width="50" height="50" relative="1" as="geometry">
            <mxPoint x="252.39999999999998" y="120.5" as="sourcePoint" />
            <mxPoint x="252.39999999999998" y="80.5" as="targetPoint" />
          </mxGeometry>
        </mxCell>
        <mxCell id="aFBxvqd-sywQT1AkZxLm-65" style="edgeStyle=orthogonalEdgeStyle;rounded=0;orthogonalLoop=1;jettySize=auto;html=1;exitX=1;exitY=0.5;exitDx=0;exitDy=0;entryX=0;entryY=0.5;entryDx=0;entryDy=0;fontSize=20;fontStyle=1;strokeWidth=2;" parent="1" source="aFBxvqd-sywQT1AkZxLm-18" target="aFBxvqd-sywQT1AkZxLm-46" edge="1">
          <mxGeometry relative="1" as="geometry" />
        </mxCell>
        <mxCell id="aFBxvqd-sywQT1AkZxLm-66" style="edgeStyle=orthogonalEdgeStyle;rounded=0;orthogonalLoop=1;jettySize=auto;html=1;exitX=1;exitY=0.5;exitDx=0;exitDy=0;entryX=0;entryY=0.5;entryDx=0;entryDy=0;fontSize=20;fontStyle=1;strokeWidth=2;" parent="1" source="aFBxvqd-sywQT1AkZxLm-18" target="aFBxvqd-sywQT1AkZxLm-57" edge="1">
          <mxGeometry relative="1" as="geometry" />
        </mxCell>
        <mxCell id="aFBxvqd-sywQT1AkZxLm-18" value="" style="rounded=0;whiteSpace=wrap;html=1;fontSize=20;fontStyle=1;strokeWidth=2;" parent="1" vertex="1">
          <mxGeometry x="201.00000000000003" y="409.5" width="200" height="110" as="geometry" />
        </mxCell>
        <mxCell id="aFBxvqd-sywQT1AkZxLm-19" value="" style="endArrow=none;html=1;rounded=0;entryX=1.007;entryY=0.365;entryDx=0;entryDy=0;exitX=0;exitY=0.362;exitDx=0;exitDy=0;exitPerimeter=0;entryPerimeter=0;fontSize=20;fontStyle=1;strokeWidth=2;" parent="1" source="aFBxvqd-sywQT1AkZxLm-18" target="aFBxvqd-sywQT1AkZxLm-18" edge="1">
          <mxGeometry width="50" height="50" relative="1" as="geometry">
            <mxPoint x="237" y="519.5" as="sourcePoint" />
            <mxPoint x="237" y="409.5" as="targetPoint" />
          </mxGeometry>
        </mxCell>
        <mxCell id="aFBxvqd-sywQT1AkZxLm-20" value="" style="endArrow=none;html=1;rounded=0;entryX=1;entryY=0.75;entryDx=0;entryDy=0;exitX=0;exitY=0.75;exitDx=0;exitDy=0;fontSize=20;fontStyle=1;strokeWidth=2;" parent="1" edge="1">
          <mxGeometry width="50" height="50" relative="1" as="geometry">
            <mxPoint x="201.00000000000003" y="480" as="sourcePoint" />
            <mxPoint x="401" y="480" as="targetPoint" />
          </mxGeometry>
        </mxCell>
        <mxCell id="aFBxvqd-sywQT1AkZxLm-21" value="" style="endArrow=none;html=1;rounded=0;entryX=0.25;entryY=0;entryDx=0;entryDy=0;fontSize=20;fontStyle=1;strokeWidth=2;" parent="1" target="aFBxvqd-sywQT1AkZxLm-18" edge="1">
          <mxGeometry width="50" height="50" relative="1" as="geometry">
            <mxPoint x="251" y="449.5" as="sourcePoint" />
            <mxPoint x="561" y="499.5" as="targetPoint" />
          </mxGeometry>
        </mxCell>
        <mxCell id="aFBxvqd-sywQT1AkZxLm-22" value="" style="endArrow=none;html=1;rounded=0;entryX=0.25;entryY=0;entryDx=0;entryDy=0;fontSize=20;fontStyle=1;strokeWidth=2;" parent="1" edge="1">
          <mxGeometry width="50" height="50" relative="1" as="geometry">
            <mxPoint x="351" y="449.5" as="sourcePoint" />
            <mxPoint x="351" y="409.5" as="targetPoint" />
          </mxGeometry>
        </mxCell>
        <mxCell id="aFBxvqd-sywQT1AkZxLm-23" value="" style="endArrow=none;html=1;rounded=0;entryX=0.25;entryY=0;entryDx=0;entryDy=0;fontSize=20;fontStyle=1;strokeWidth=2;" parent="1" edge="1">
          <mxGeometry width="50" height="50" relative="1" as="geometry">
            <mxPoint x="352" y="519.5" as="sourcePoint" />
            <mxPoint x="352" y="479.5" as="targetPoint" />
          </mxGeometry>
        </mxCell>
        <mxCell id="aFBxvqd-sywQT1AkZxLm-24" value="" style="endArrow=none;html=1;rounded=0;entryX=0.25;entryY=0;entryDx=0;entryDy=0;fontSize=20;fontStyle=1;strokeWidth=2;" parent="1" edge="1">
          <mxGeometry width="50" height="50" relative="1" as="geometry">
            <mxPoint x="251" y="520.5" as="sourcePoint" />
            <mxPoint x="251" y="480.5" as="targetPoint" />
          </mxGeometry>
        </mxCell>
        <mxCell id="aFBxvqd-sywQT1AkZxLm-25" value="&lt;font style=&quot;font-size: 20px;&quot;&gt;B&lt;/font&gt;" style="text;html=1;align=center;verticalAlign=middle;resizable=0;points=[];autosize=1;strokeColor=none;fillColor=none;fontSize=20;fontStyle=1;strokeWidth=2;" parent="1" vertex="1">
          <mxGeometry x="281" y="244.5" width="40" height="40" as="geometry" />
        </mxCell>
        <mxCell id="aFBxvqd-sywQT1AkZxLm-26" value="&lt;span style=&quot;font-size: 20px;&quot;&gt;C&lt;/span&gt;" style="text;html=1;align=center;verticalAlign=middle;resizable=0;points=[];autosize=1;strokeColor=none;fillColor=none;fontSize=20;fontStyle=1;strokeWidth=2;" parent="1" vertex="1">
          <mxGeometry x="281" y="445.5" width="40" height="40" as="geometry" />
        </mxCell>
        <mxCell id="aFBxvqd-sywQT1AkZxLm-27" value="&lt;font style=&quot;font-size: 20px;&quot;&gt;Inicio&lt;/font&gt;" style="rounded=0;whiteSpace=wrap;html=1;fontSize=20;fontStyle=1;fillColor=#d5e8d4;strokeColor=#82b366;" parent="1" vertex="1">
          <mxGeometry y="235" width="120" height="60" as="geometry" />
        </mxCell>
        <mxCell id="aFBxvqd-sywQT1AkZxLm-28" value="" style="endArrow=classic;html=1;rounded=0;exitX=1;exitY=0.5;exitDx=0;exitDy=0;entryX=0;entryY=0.5;entryDx=0;entryDy=0;fillColor=#f8cecc;strokeColor=#b85450;fontSize=20;fontStyle=1;strokeWidth=2;" parent="1" source="aFBxvqd-sywQT1AkZxLm-27" target="aFBxvqd-sywQT1AkZxLm-11" edge="1">
          <mxGeometry width="50" height="50" relative="1" as="geometry">
            <mxPoint x="80" y="300" as="sourcePoint" />
            <mxPoint x="130" y="250" as="targetPoint" />
          </mxGeometry>
        </mxCell>
        <mxCell id="aFBxvqd-sywQT1AkZxLm-30" value="" style="endArrow=classic;html=1;rounded=0;exitX=1;exitY=0.5;exitDx=0;exitDy=0;entryX=0;entryY=0.5;entryDx=0;entryDy=0;fontSize=20;fontStyle=1;strokeWidth=2;" parent="1" source="aFBxvqd-sywQT1AkZxLm-27" target="aFBxvqd-sywQT1AkZxLm-2" edge="1">
          <mxGeometry width="50" height="50" relative="1" as="geometry">
            <mxPoint x="130" y="275" as="sourcePoint" />
            <mxPoint x="310" y="75" as="targetPoint" />
          </mxGeometry>
        </mxCell>
        <mxCell id="aFBxvqd-sywQT1AkZxLm-31" value="" style="endArrow=classic;html=1;rounded=0;exitX=1;exitY=0.5;exitDx=0;exitDy=0;entryX=0;entryY=0.5;entryDx=0;entryDy=0;fontSize=20;fontStyle=1;strokeWidth=2;" parent="1" source="aFBxvqd-sywQT1AkZxLm-27" target="aFBxvqd-sywQT1AkZxLm-18" edge="1">
          <mxGeometry width="50" height="50" relative="1" as="geometry">
            <mxPoint x="130" y="275" as="sourcePoint" />
            <mxPoint x="310" y="75" as="targetPoint" />
          </mxGeometry>
        </mxCell>
        <mxCell id="aFBxvqd-sywQT1AkZxLm-124" style="edgeStyle=orthogonalEdgeStyle;rounded=0;orthogonalLoop=1;jettySize=auto;html=1;exitX=1;exitY=0.5;exitDx=0;exitDy=0;entryX=0;entryY=0.25;entryDx=0;entryDy=0;fontSize=20;fontStyle=1;strokeWidth=2;" parent="1" source="aFBxvqd-sywQT1AkZxLm-32" target="aFBxvqd-sywQT1AkZxLm-110" edge="1">
          <mxGeometry relative="1" as="geometry" />
        </mxCell>
        <mxCell id="aFBxvqd-sywQT1AkZxLm-125" style="edgeStyle=orthogonalEdgeStyle;rounded=0;orthogonalLoop=1;jettySize=auto;html=1;exitX=1;exitY=0.5;exitDx=0;exitDy=0;entryX=-0.01;entryY=0.361;entryDx=0;entryDy=0;entryPerimeter=0;fontSize=20;fontStyle=1;strokeWidth=2;" parent="1" target="aFBxvqd-sywQT1AkZxLm-103" edge="1">
          <mxGeometry relative="1" as="geometry">
            <Array as="points">
              <mxPoint x="613" y="67" />
              <mxPoint x="801" y="67" />
              <mxPoint x="801" y="380" />
            </Array>
            <mxPoint x="612.6999999999999" y="65" as="sourcePoint" />
            <mxPoint x="718.1" y="396" as="targetPoint" />
          </mxGeometry>
        </mxCell>
        <mxCell id="aFBxvqd-sywQT1AkZxLm-32" value="" style="rounded=0;whiteSpace=wrap;html=1;fontSize=20;fontStyle=1;strokeWidth=2;" parent="1" vertex="1">
          <mxGeometry x="521.6" y="9" width="200" height="110" as="geometry" />
        </mxCell>
        <mxCell id="aFBxvqd-sywQT1AkZxLm-33" value="" style="endArrow=none;html=1;rounded=0;entryX=1.007;entryY=0.365;entryDx=0;entryDy=0;exitX=0;exitY=0.362;exitDx=0;exitDy=0;exitPerimeter=0;entryPerimeter=0;fontSize=20;fontStyle=1;strokeWidth=2;" parent="1" source="aFBxvqd-sywQT1AkZxLm-32" target="aFBxvqd-sywQT1AkZxLm-32" edge="1">
          <mxGeometry width="50" height="50" relative="1" as="geometry">
            <mxPoint x="557.6" y="119" as="sourcePoint" />
            <mxPoint x="557.6" y="9" as="targetPoint" />
          </mxGeometry>
        </mxCell>
        <mxCell id="aFBxvqd-sywQT1AkZxLm-34" value="" style="endArrow=none;html=1;rounded=0;entryX=1;entryY=0.75;entryDx=0;entryDy=0;exitX=0;exitY=0.75;exitDx=0;exitDy=0;fontSize=20;fontStyle=1;strokeWidth=2;" parent="1" edge="1">
          <mxGeometry width="50" height="50" relative="1" as="geometry">
            <mxPoint x="521.6" y="79.5" as="sourcePoint" />
            <mxPoint x="721.6" y="79.5" as="targetPoint" />
          </mxGeometry>
        </mxCell>
        <mxCell id="aFBxvqd-sywQT1AkZxLm-35" value="" style="endArrow=none;html=1;rounded=0;entryX=0.25;entryY=0;entryDx=0;entryDy=0;fontSize=20;fontStyle=1;strokeWidth=2;" parent="1" target="aFBxvqd-sywQT1AkZxLm-32" edge="1">
          <mxGeometry width="50" height="50" relative="1" as="geometry">
            <mxPoint x="571.6" y="49" as="sourcePoint" />
            <mxPoint x="881.5999999999999" y="99" as="targetPoint" />
          </mxGeometry>
        </mxCell>
        <mxCell id="aFBxvqd-sywQT1AkZxLm-36" value="" style="endArrow=none;html=1;rounded=0;entryX=0.25;entryY=0;entryDx=0;entryDy=0;fontSize=20;fontStyle=1;strokeWidth=2;" parent="1" edge="1">
          <mxGeometry width="50" height="50" relative="1" as="geometry">
            <mxPoint x="671.6" y="49" as="sourcePoint" />
            <mxPoint x="671.6" y="9" as="targetPoint" />
          </mxGeometry>
        </mxCell>
        <mxCell id="aFBxvqd-sywQT1AkZxLm-37" value="" style="endArrow=none;html=1;rounded=0;entryX=0.25;entryY=0;entryDx=0;entryDy=0;fontSize=20;fontStyle=1;strokeWidth=2;" parent="1" edge="1">
          <mxGeometry width="50" height="50" relative="1" as="geometry">
            <mxPoint x="672.6" y="119" as="sourcePoint" />
            <mxPoint x="672.6" y="79" as="targetPoint" />
          </mxGeometry>
        </mxCell>
        <mxCell id="aFBxvqd-sywQT1AkZxLm-38" value="" style="endArrow=none;html=1;rounded=0;entryX=0.25;entryY=0;entryDx=0;entryDy=0;fontSize=20;fontStyle=1;strokeWidth=2;" parent="1" edge="1">
          <mxGeometry width="50" height="50" relative="1" as="geometry">
            <mxPoint x="571.6" y="120" as="sourcePoint" />
            <mxPoint x="571.6" y="80" as="targetPoint" />
          </mxGeometry>
        </mxCell>
        <mxCell id="aFBxvqd-sywQT1AkZxLm-99" style="edgeStyle=orthogonalEdgeStyle;rounded=0;orthogonalLoop=1;jettySize=auto;html=1;exitX=1;exitY=0.5;exitDx=0;exitDy=0;entryX=0;entryY=0.5;entryDx=0;entryDy=0;fontSize=20;fontStyle=1;strokeWidth=2;" parent="1" source="aFBxvqd-sywQT1AkZxLm-39" target="aFBxvqd-sywQT1AkZxLm-90" edge="1">
          <mxGeometry relative="1" as="geometry" />
        </mxCell>
        <mxCell id="aFBxvqd-sywQT1AkZxLm-39" value="&lt;font style=&quot;font-size: 20px;&quot;&gt;D&lt;/font&gt;" style="rounded=0;whiteSpace=wrap;html=1;fontSize=20;fontStyle=1;strokeWidth=2;" parent="1" vertex="1">
          <mxGeometry x="523" y="-227" width="200" height="110" as="geometry" />
        </mxCell>
        <mxCell id="aFBxvqd-sywQT1AkZxLm-40" value="" style="endArrow=none;html=1;rounded=0;entryX=1.007;entryY=0.365;entryDx=0;entryDy=0;exitX=0;exitY=0.362;exitDx=0;exitDy=0;exitPerimeter=0;entryPerimeter=0;elbow=vertical;fontSize=20;fontStyle=1;strokeWidth=2;" parent="1" source="aFBxvqd-sywQT1AkZxLm-39" target="aFBxvqd-sywQT1AkZxLm-39" edge="1">
          <mxGeometry width="50" height="50" relative="1" as="geometry">
            <mxPoint x="559" y="-117" as="sourcePoint" />
            <mxPoint x="559" y="-227" as="targetPoint" />
          </mxGeometry>
        </mxCell>
        <mxCell id="aFBxvqd-sywQT1AkZxLm-41" value="" style="endArrow=none;html=1;rounded=0;entryX=1;entryY=0.75;entryDx=0;entryDy=0;exitX=0;exitY=0.75;exitDx=0;exitDy=0;fontSize=20;fontStyle=1;strokeWidth=2;" parent="1" edge="1">
          <mxGeometry width="50" height="50" relative="1" as="geometry">
            <mxPoint x="523" y="-156.5" as="sourcePoint" />
            <mxPoint x="723" y="-156.5" as="targetPoint" />
          </mxGeometry>
        </mxCell>
        <mxCell id="aFBxvqd-sywQT1AkZxLm-42" value="" style="endArrow=none;html=1;rounded=0;entryX=0.25;entryY=0;entryDx=0;entryDy=0;fontSize=20;fontStyle=1;strokeWidth=2;" parent="1" target="aFBxvqd-sywQT1AkZxLm-39" edge="1">
          <mxGeometry width="50" height="50" relative="1" as="geometry">
            <mxPoint x="573" y="-187" as="sourcePoint" />
            <mxPoint x="883" y="-137" as="targetPoint" />
          </mxGeometry>
        </mxCell>
        <mxCell id="aFBxvqd-sywQT1AkZxLm-43" value="" style="endArrow=none;html=1;rounded=0;entryX=0.25;entryY=0;entryDx=0;entryDy=0;fontSize=20;fontStyle=1;strokeWidth=2;" parent="1" edge="1">
          <mxGeometry width="50" height="50" relative="1" as="geometry">
            <mxPoint x="673" y="-187" as="sourcePoint" />
            <mxPoint x="673" y="-227" as="targetPoint" />
          </mxGeometry>
        </mxCell>
        <mxCell id="aFBxvqd-sywQT1AkZxLm-44" value="" style="endArrow=none;html=1;rounded=0;entryX=0.25;entryY=0;entryDx=0;entryDy=0;fontSize=20;fontStyle=1;strokeWidth=2;" parent="1" edge="1">
          <mxGeometry width="50" height="50" relative="1" as="geometry">
            <mxPoint x="674" y="-117" as="sourcePoint" />
            <mxPoint x="674" y="-157" as="targetPoint" />
          </mxGeometry>
        </mxCell>
        <mxCell id="aFBxvqd-sywQT1AkZxLm-45" value="" style="endArrow=none;html=1;rounded=0;entryX=0.25;entryY=0;entryDx=0;entryDy=0;fontSize=20;fontStyle=1;strokeWidth=2;" parent="1" edge="1">
          <mxGeometry width="50" height="50" relative="1" as="geometry">
            <mxPoint x="573" y="-116" as="sourcePoint" />
            <mxPoint x="573" y="-156" as="targetPoint" />
          </mxGeometry>
        </mxCell>
        <mxCell id="aFBxvqd-sywQT1AkZxLm-126" style="edgeStyle=orthogonalEdgeStyle;rounded=0;orthogonalLoop=1;jettySize=auto;html=1;exitX=1;exitY=0.5;exitDx=0;exitDy=0;entryX=0;entryY=0.75;entryDx=0;entryDy=0;fontSize=20;fontStyle=1;strokeWidth=2;" parent="1" source="aFBxvqd-sywQT1AkZxLm-46" target="aFBxvqd-sywQT1AkZxLm-103" edge="1">
          <mxGeometry relative="1" as="geometry">
            <Array as="points">
              <mxPoint x="790" y="464" />
              <mxPoint x="790" y="423" />
            </Array>
          </mxGeometry>
        </mxCell>
        <mxCell id="aFBxvqd-sywQT1AkZxLm-128" style="edgeStyle=orthogonalEdgeStyle;rounded=0;orthogonalLoop=1;jettySize=auto;html=1;exitX=1;exitY=0.75;exitDx=0;exitDy=0;entryX=0;entryY=0.75;entryDx=0;entryDy=0;fontSize=20;fontStyle=1;strokeWidth=2;" parent="1" source="aFBxvqd-sywQT1AkZxLm-46" target="aFBxvqd-sywQT1AkZxLm-110" edge="1">
          <mxGeometry relative="1" as="geometry" />
        </mxCell>
        <mxCell id="aFBxvqd-sywQT1AkZxLm-46" value="" style="rounded=0;whiteSpace=wrap;html=1;fontSize=20;fontStyle=1;strokeWidth=2;" parent="1" vertex="1">
          <mxGeometry x="521.6" y="409" width="200" height="110" as="geometry" />
        </mxCell>
        <mxCell id="aFBxvqd-sywQT1AkZxLm-47" value="" style="endArrow=none;html=1;rounded=0;entryX=1.007;entryY=0.365;entryDx=0;entryDy=0;exitX=0;exitY=0.362;exitDx=0;exitDy=0;exitPerimeter=0;entryPerimeter=0;fontSize=20;fontStyle=1;strokeWidth=2;" parent="1" source="aFBxvqd-sywQT1AkZxLm-46" target="aFBxvqd-sywQT1AkZxLm-46" edge="1">
          <mxGeometry width="50" height="50" relative="1" as="geometry">
            <mxPoint x="557.6" y="519" as="sourcePoint" />
            <mxPoint x="557.6" y="409" as="targetPoint" />
          </mxGeometry>
        </mxCell>
        <mxCell id="aFBxvqd-sywQT1AkZxLm-48" value="" style="endArrow=none;html=1;rounded=0;entryX=1;entryY=0.75;entryDx=0;entryDy=0;exitX=0;exitY=0.75;exitDx=0;exitDy=0;fontSize=20;fontStyle=1;strokeWidth=2;" parent="1" edge="1">
          <mxGeometry width="50" height="50" relative="1" as="geometry">
            <mxPoint x="521.6" y="479.5" as="sourcePoint" />
            <mxPoint x="721.6" y="479.5" as="targetPoint" />
          </mxGeometry>
        </mxCell>
        <mxCell id="aFBxvqd-sywQT1AkZxLm-49" value="" style="endArrow=none;html=1;rounded=0;entryX=0.25;entryY=0;entryDx=0;entryDy=0;fontSize=20;fontStyle=1;strokeWidth=2;" parent="1" target="aFBxvqd-sywQT1AkZxLm-46" edge="1">
          <mxGeometry width="50" height="50" relative="1" as="geometry">
            <mxPoint x="571.6" y="449" as="sourcePoint" />
            <mxPoint x="881.5999999999999" y="499" as="targetPoint" />
          </mxGeometry>
        </mxCell>
        <mxCell id="aFBxvqd-sywQT1AkZxLm-50" value="" style="endArrow=none;html=1;rounded=0;entryX=0.25;entryY=0;entryDx=0;entryDy=0;fontSize=20;fontStyle=1;strokeWidth=2;" parent="1" edge="1">
          <mxGeometry width="50" height="50" relative="1" as="geometry">
            <mxPoint x="671.6" y="449" as="sourcePoint" />
            <mxPoint x="671.6" y="409" as="targetPoint" />
          </mxGeometry>
        </mxCell>
        <mxCell id="aFBxvqd-sywQT1AkZxLm-51" value="" style="endArrow=none;html=1;rounded=0;entryX=0.25;entryY=0;entryDx=0;entryDy=0;fontSize=20;fontStyle=1;strokeWidth=2;" parent="1" edge="1">
          <mxGeometry width="50" height="50" relative="1" as="geometry">
            <mxPoint x="672.6" y="519" as="sourcePoint" />
            <mxPoint x="672.6" y="479" as="targetPoint" />
          </mxGeometry>
        </mxCell>
        <mxCell id="aFBxvqd-sywQT1AkZxLm-52" value="" style="endArrow=none;html=1;rounded=0;entryX=0.25;entryY=0;entryDx=0;entryDy=0;fontSize=20;fontStyle=1;strokeWidth=2;" parent="1" edge="1">
          <mxGeometry width="50" height="50" relative="1" as="geometry">
            <mxPoint x="571.6" y="520" as="sourcePoint" />
            <mxPoint x="571.6" y="480" as="targetPoint" />
          </mxGeometry>
        </mxCell>
        <mxCell id="aFBxvqd-sywQT1AkZxLm-53" value="&lt;span style=&quot;font-size: 20px;&quot;&gt;E&lt;/span&gt;" style="text;html=1;align=center;verticalAlign=middle;resizable=0;points=[];autosize=1;strokeColor=none;fillColor=none;fontSize=20;fontStyle=1;strokeWidth=2;" parent="1" vertex="1">
          <mxGeometry x="603.6" y="44" width="40" height="40" as="geometry" />
        </mxCell>
        <mxCell id="aFBxvqd-sywQT1AkZxLm-54" value="&lt;span style=&quot;font-size: 20px;&quot;&gt;F&lt;/span&gt;" style="text;html=1;align=center;verticalAlign=middle;resizable=0;points=[];autosize=1;strokeColor=none;fillColor=none;fontSize=20;fontStyle=1;strokeWidth=2;" parent="1" vertex="1">
          <mxGeometry x="601.6" y="444" width="40" height="40" as="geometry" />
        </mxCell>
        <mxCell id="aFBxvqd-sywQT1AkZxLm-55" value="" style="endArrow=classic;html=1;rounded=0;exitX=1.007;exitY=0.44;exitDx=0;exitDy=0;exitPerimeter=0;entryX=0;entryY=0.5;entryDx=0;entryDy=0;fillColor=#f8cecc;strokeColor=#b85450;fontSize=20;fontStyle=1;strokeWidth=2;" parent="1" source="aFBxvqd-sywQT1AkZxLm-11" target="aFBxvqd-sywQT1AkZxLm-39" edge="1">
          <mxGeometry width="50" height="50" relative="1" as="geometry">
            <mxPoint x="610" y="320" as="sourcePoint" />
            <mxPoint x="660" y="270" as="targetPoint" />
          </mxGeometry>
        </mxCell>
        <mxCell id="aFBxvqd-sywQT1AkZxLm-136" style="edgeStyle=orthogonalEdgeStyle;rounded=0;orthogonalLoop=1;jettySize=auto;html=1;exitX=1;exitY=0.5;exitDx=0;exitDy=0;fontSize=20;fontStyle=1;strokeWidth=2;" parent="1" source="aFBxvqd-sywQT1AkZxLm-57" target="aFBxvqd-sywQT1AkZxLm-129" edge="1">
          <mxGeometry relative="1" as="geometry" />
        </mxCell>
        <mxCell id="aFBxvqd-sywQT1AkZxLm-57" value="" style="rounded=0;whiteSpace=wrap;html=1;fontSize=20;fontStyle=1;strokeWidth=2;" parent="1" vertex="1">
          <mxGeometry x="523.6" y="557" width="200" height="110" as="geometry" />
        </mxCell>
        <mxCell id="aFBxvqd-sywQT1AkZxLm-58" value="" style="endArrow=none;html=1;rounded=0;entryX=1.007;entryY=0.365;entryDx=0;entryDy=0;exitX=0;exitY=0.362;exitDx=0;exitDy=0;exitPerimeter=0;entryPerimeter=0;fontSize=20;fontStyle=1;strokeWidth=2;" parent="1" source="aFBxvqd-sywQT1AkZxLm-57" target="aFBxvqd-sywQT1AkZxLm-57" edge="1">
          <mxGeometry width="50" height="50" relative="1" as="geometry">
            <mxPoint x="559.6" y="667" as="sourcePoint" />
            <mxPoint x="559.6" y="557" as="targetPoint" />
          </mxGeometry>
        </mxCell>
        <mxCell id="aFBxvqd-sywQT1AkZxLm-59" value="" style="endArrow=none;html=1;rounded=0;entryX=1;entryY=0.75;entryDx=0;entryDy=0;exitX=0;exitY=0.75;exitDx=0;exitDy=0;fontSize=20;fontStyle=1;strokeWidth=2;" parent="1" edge="1">
          <mxGeometry width="50" height="50" relative="1" as="geometry">
            <mxPoint x="523.6" y="627.5" as="sourcePoint" />
            <mxPoint x="723.6" y="627.5" as="targetPoint" />
          </mxGeometry>
        </mxCell>
        <mxCell id="aFBxvqd-sywQT1AkZxLm-60" value="" style="endArrow=none;html=1;rounded=0;entryX=0.25;entryY=0;entryDx=0;entryDy=0;fontSize=20;fontStyle=1;strokeWidth=2;" parent="1" target="aFBxvqd-sywQT1AkZxLm-57" edge="1">
          <mxGeometry width="50" height="50" relative="1" as="geometry">
            <mxPoint x="573.6" y="597" as="sourcePoint" />
            <mxPoint x="883.5999999999999" y="647" as="targetPoint" />
          </mxGeometry>
        </mxCell>
        <mxCell id="aFBxvqd-sywQT1AkZxLm-61" value="" style="endArrow=none;html=1;rounded=0;entryX=0.25;entryY=0;entryDx=0;entryDy=0;fontSize=20;fontStyle=1;strokeWidth=2;" parent="1" edge="1">
          <mxGeometry width="50" height="50" relative="1" as="geometry">
            <mxPoint x="673.6" y="597" as="sourcePoint" />
            <mxPoint x="673.6" y="557" as="targetPoint" />
          </mxGeometry>
        </mxCell>
        <mxCell id="aFBxvqd-sywQT1AkZxLm-62" value="" style="endArrow=none;html=1;rounded=0;entryX=0.25;entryY=0;entryDx=0;entryDy=0;fontSize=20;fontStyle=1;strokeWidth=2;" parent="1" edge="1">
          <mxGeometry width="50" height="50" relative="1" as="geometry">
            <mxPoint x="674.6" y="667" as="sourcePoint" />
            <mxPoint x="674.6" y="627" as="targetPoint" />
          </mxGeometry>
        </mxCell>
        <mxCell id="aFBxvqd-sywQT1AkZxLm-63" value="" style="endArrow=none;html=1;rounded=0;entryX=0.25;entryY=0;entryDx=0;entryDy=0;fontSize=20;fontStyle=1;strokeWidth=2;" parent="1" edge="1">
          <mxGeometry width="50" height="50" relative="1" as="geometry">
            <mxPoint x="573.6" y="668" as="sourcePoint" />
            <mxPoint x="573.6" y="628" as="targetPoint" />
          </mxGeometry>
        </mxCell>
        <mxCell id="aFBxvqd-sywQT1AkZxLm-64" value="&lt;span style=&quot;font-size: 20px;&quot;&gt;G&lt;/span&gt;" style="text;html=1;align=center;verticalAlign=middle;resizable=0;points=[];autosize=1;strokeColor=none;fillColor=none;fontSize=20;fontStyle=1;strokeWidth=2;" parent="1" vertex="1">
          <mxGeometry x="603.6" y="593" width="40" height="40" as="geometry" />
        </mxCell>
        <mxCell id="aFBxvqd-sywQT1AkZxLm-174" style="edgeStyle=orthogonalEdgeStyle;rounded=0;orthogonalLoop=1;jettySize=auto;html=1;exitX=1;exitY=0.5;exitDx=0;exitDy=0;entryX=0;entryY=0.5;entryDx=0;entryDy=0;fillColor=#f8cecc;strokeColor=#b85450;fontSize=20;fontStyle=1;strokeWidth=2;" parent="1" source="aFBxvqd-sywQT1AkZxLm-83" target="aFBxvqd-sywQT1AkZxLm-137" edge="1">
          <mxGeometry relative="1" as="geometry">
            <Array as="points">
              <mxPoint x="1022" y="-69" />
              <mxPoint x="1070" y="-69" />
              <mxPoint x="1070" y="229" />
            </Array>
          </mxGeometry>
        </mxCell>
        <mxCell id="aFBxvqd-sywQT1AkZxLm-83" value="&lt;font style=&quot;font-size: 20px;&quot;&gt;I&lt;/font&gt;" style="rounded=0;whiteSpace=wrap;html=1;fontSize=20;fontStyle=1;strokeWidth=2;" parent="1" vertex="1">
          <mxGeometry x="822" y="-115" width="200" height="110" as="geometry" />
        </mxCell>
        <mxCell id="aFBxvqd-sywQT1AkZxLm-84" value="" style="endArrow=none;html=1;rounded=0;entryX=1.007;entryY=0.365;entryDx=0;entryDy=0;exitX=0;exitY=0.362;exitDx=0;exitDy=0;exitPerimeter=0;entryPerimeter=0;fontSize=20;fontStyle=1;strokeWidth=2;" parent="1" source="aFBxvqd-sywQT1AkZxLm-83" target="aFBxvqd-sywQT1AkZxLm-83" edge="1">
          <mxGeometry width="50" height="50" relative="1" as="geometry">
            <mxPoint x="857.9999999999999" y="-5" as="sourcePoint" />
            <mxPoint x="857.9999999999999" y="-115" as="targetPoint" />
          </mxGeometry>
        </mxCell>
        <mxCell id="aFBxvqd-sywQT1AkZxLm-85" value="" style="endArrow=none;html=1;rounded=0;entryX=1;entryY=0.75;entryDx=0;entryDy=0;exitX=0;exitY=0.75;exitDx=0;exitDy=0;fontSize=20;fontStyle=1;strokeWidth=2;" parent="1" edge="1">
          <mxGeometry width="50" height="50" relative="1" as="geometry">
            <mxPoint x="822" y="-44.5" as="sourcePoint" />
            <mxPoint x="1021.9999999999999" y="-44.5" as="targetPoint" />
          </mxGeometry>
        </mxCell>
        <mxCell id="aFBxvqd-sywQT1AkZxLm-86" value="" style="endArrow=none;html=1;rounded=0;entryX=0.25;entryY=0;entryDx=0;entryDy=0;fontSize=20;fontStyle=1;strokeWidth=2;" parent="1" target="aFBxvqd-sywQT1AkZxLm-83" edge="1">
          <mxGeometry width="50" height="50" relative="1" as="geometry">
            <mxPoint x="871.9999999999999" y="-75" as="sourcePoint" />
            <mxPoint x="1182" y="-25" as="targetPoint" />
          </mxGeometry>
        </mxCell>
        <mxCell id="aFBxvqd-sywQT1AkZxLm-87" value="" style="endArrow=none;html=1;rounded=0;entryX=0.25;entryY=0;entryDx=0;entryDy=0;fontSize=20;fontStyle=1;strokeWidth=2;" parent="1" edge="1">
          <mxGeometry width="50" height="50" relative="1" as="geometry">
            <mxPoint x="971.9999999999999" y="-75" as="sourcePoint" />
            <mxPoint x="971.9999999999999" y="-115" as="targetPoint" />
          </mxGeometry>
        </mxCell>
        <mxCell id="aFBxvqd-sywQT1AkZxLm-88" value="" style="endArrow=none;html=1;rounded=0;entryX=0.25;entryY=0;entryDx=0;entryDy=0;fontSize=20;fontStyle=1;strokeWidth=2;" parent="1" edge="1">
          <mxGeometry width="50" height="50" relative="1" as="geometry">
            <mxPoint x="972.9999999999999" y="-5" as="sourcePoint" />
            <mxPoint x="972.9999999999999" y="-45" as="targetPoint" />
          </mxGeometry>
        </mxCell>
        <mxCell id="aFBxvqd-sywQT1AkZxLm-89" value="" style="endArrow=none;html=1;rounded=0;entryX=0.25;entryY=0;entryDx=0;entryDy=0;fontSize=20;fontStyle=1;strokeWidth=2;" parent="1" edge="1">
          <mxGeometry width="50" height="50" relative="1" as="geometry">
            <mxPoint x="871.9999999999999" y="-4" as="sourcePoint" />
            <mxPoint x="871.9999999999999" y="-44" as="targetPoint" />
          </mxGeometry>
        </mxCell>
        <mxCell id="aFBxvqd-sywQT1AkZxLm-173" style="edgeStyle=orthogonalEdgeStyle;rounded=0;orthogonalLoop=1;jettySize=auto;html=1;exitX=1;exitY=0.5;exitDx=0;exitDy=0;entryX=0;entryY=0.5;entryDx=0;entryDy=0;fontSize=20;fontStyle=1;strokeWidth=2;" parent="1" source="aFBxvqd-sywQT1AkZxLm-90" target="aFBxvqd-sywQT1AkZxLm-144" edge="1">
          <mxGeometry relative="1" as="geometry">
            <Array as="points">
              <mxPoint x="1110" y="-210" />
              <mxPoint x="1110" y="-33" />
            </Array>
          </mxGeometry>
        </mxCell>
        <mxCell id="aFBxvqd-sywQT1AkZxLm-90" value="&lt;font style=&quot;font-size: 20px;&quot;&gt;H&lt;/font&gt;" style="rounded=0;whiteSpace=wrap;html=1;fontSize=20;fontStyle=1;strokeWidth=2;" parent="1" vertex="1">
          <mxGeometry x="825.1999999999999" y="-265" width="200" height="110" as="geometry" />
        </mxCell>
        <mxCell id="aFBxvqd-sywQT1AkZxLm-91" value="" style="endArrow=none;html=1;rounded=0;entryX=1.007;entryY=0.365;entryDx=0;entryDy=0;exitX=0;exitY=0.362;exitDx=0;exitDy=0;exitPerimeter=0;entryPerimeter=0;elbow=vertical;fontSize=20;fontStyle=1;strokeWidth=2;" parent="1" source="aFBxvqd-sywQT1AkZxLm-90" target="aFBxvqd-sywQT1AkZxLm-90" edge="1">
          <mxGeometry width="50" height="50" relative="1" as="geometry">
            <mxPoint x="861.1999999999999" y="-155" as="sourcePoint" />
            <mxPoint x="861.1999999999999" y="-265" as="targetPoint" />
          </mxGeometry>
        </mxCell>
        <mxCell id="aFBxvqd-sywQT1AkZxLm-92" value="" style="endArrow=none;html=1;rounded=0;entryX=1;entryY=0.75;entryDx=0;entryDy=0;exitX=0;exitY=0.75;exitDx=0;exitDy=0;fontSize=20;fontStyle=1;strokeWidth=2;" parent="1" edge="1">
          <mxGeometry width="50" height="50" relative="1" as="geometry">
            <mxPoint x="825.1999999999999" y="-194.5" as="sourcePoint" />
            <mxPoint x="1025.2" y="-194.5" as="targetPoint" />
          </mxGeometry>
        </mxCell>
        <mxCell id="aFBxvqd-sywQT1AkZxLm-93" value="" style="endArrow=none;html=1;rounded=0;entryX=0.25;entryY=0;entryDx=0;entryDy=0;fontSize=20;fontStyle=1;strokeWidth=2;" parent="1" target="aFBxvqd-sywQT1AkZxLm-90" edge="1">
          <mxGeometry width="50" height="50" relative="1" as="geometry">
            <mxPoint x="875.1999999999999" y="-225" as="sourcePoint" />
            <mxPoint x="1185.2" y="-175" as="targetPoint" />
          </mxGeometry>
        </mxCell>
        <mxCell id="aFBxvqd-sywQT1AkZxLm-94" value="" style="endArrow=none;html=1;rounded=0;entryX=0.25;entryY=0;entryDx=0;entryDy=0;fontSize=20;fontStyle=1;strokeWidth=2;" parent="1" edge="1">
          <mxGeometry width="50" height="50" relative="1" as="geometry">
            <mxPoint x="975.1999999999999" y="-225" as="sourcePoint" />
            <mxPoint x="975.1999999999999" y="-265" as="targetPoint" />
          </mxGeometry>
        </mxCell>
        <mxCell id="aFBxvqd-sywQT1AkZxLm-95" value="" style="endArrow=none;html=1;rounded=0;entryX=0.25;entryY=0;entryDx=0;entryDy=0;fontSize=20;fontStyle=1;strokeWidth=2;" parent="1" edge="1">
          <mxGeometry width="50" height="50" relative="1" as="geometry">
            <mxPoint x="976.1999999999999" y="-155" as="sourcePoint" />
            <mxPoint x="976.1999999999999" y="-195" as="targetPoint" />
          </mxGeometry>
        </mxCell>
        <mxCell id="aFBxvqd-sywQT1AkZxLm-96" value="" style="endArrow=none;html=1;rounded=0;entryX=0.25;entryY=0;entryDx=0;entryDy=0;fontSize=20;fontStyle=1;strokeWidth=2;" parent="1" edge="1">
          <mxGeometry width="50" height="50" relative="1" as="geometry">
            <mxPoint x="875.1999999999999" y="-154" as="sourcePoint" />
            <mxPoint x="875.1999999999999" y="-194" as="targetPoint" />
          </mxGeometry>
        </mxCell>
        <mxCell id="aFBxvqd-sywQT1AkZxLm-100" style="edgeStyle=orthogonalEdgeStyle;rounded=0;orthogonalLoop=1;jettySize=auto;html=1;exitX=1;exitY=0.5;exitDx=0;exitDy=0;entryX=0.001;entryY=0.551;entryDx=0;entryDy=0;entryPerimeter=0;fillColor=#f8cecc;strokeColor=#b85450;fontSize=20;fontStyle=1;strokeWidth=2;" parent="1" source="aFBxvqd-sywQT1AkZxLm-39" target="aFBxvqd-sywQT1AkZxLm-83" edge="1">
          <mxGeometry relative="1" as="geometry" />
        </mxCell>
        <mxCell id="aFBxvqd-sywQT1AkZxLm-178" style="edgeStyle=orthogonalEdgeStyle;rounded=0;orthogonalLoop=1;jettySize=auto;html=1;exitX=1;exitY=0.5;exitDx=0;exitDy=0;entryX=0;entryY=0.5;entryDx=0;entryDy=0;fontSize=20;fontStyle=1;strokeWidth=2;" parent="1" edge="1">
          <mxGeometry relative="1" as="geometry">
            <Array as="points">
              <mxPoint x="1144.8" y="407.5" />
              <mxPoint x="1144.8" y="402.5" />
              <mxPoint x="1258.8" y="402.5" />
            </Array>
            <mxPoint x="1024.4000000000003" y="407.5" as="sourcePoint" />
            <mxPoint x="1258.6000000000001" y="427.5" as="targetPoint" />
          </mxGeometry>
        </mxCell>
        <mxCell id="aFBxvqd-sywQT1AkZxLm-103" value="&lt;font style=&quot;font-size: 20px;&quot;&gt;K&lt;/font&gt;" style="rounded=0;whiteSpace=wrap;html=1;fontSize=20;fontStyle=1;strokeWidth=2;" parent="1" vertex="1">
          <mxGeometry x="827" y="340" width="200" height="110" as="geometry" />
        </mxCell>
        <mxCell id="aFBxvqd-sywQT1AkZxLm-104" value="" style="endArrow=none;html=1;rounded=0;entryX=1.007;entryY=0.365;entryDx=0;entryDy=0;exitX=0;exitY=0.362;exitDx=0;exitDy=0;exitPerimeter=0;entryPerimeter=0;fontSize=20;fontStyle=1;strokeWidth=2;" parent="1" source="aFBxvqd-sywQT1AkZxLm-103" target="aFBxvqd-sywQT1AkZxLm-103" edge="1">
          <mxGeometry width="50" height="50" relative="1" as="geometry">
            <mxPoint x="862.9999999999999" y="450" as="sourcePoint" />
            <mxPoint x="862.9999999999999" y="340" as="targetPoint" />
          </mxGeometry>
        </mxCell>
        <mxCell id="aFBxvqd-sywQT1AkZxLm-105" value="" style="endArrow=none;html=1;rounded=0;entryX=1;entryY=0.75;entryDx=0;entryDy=0;exitX=0;exitY=0.75;exitDx=0;exitDy=0;fontSize=20;fontStyle=1;strokeWidth=2;" parent="1" edge="1">
          <mxGeometry width="50" height="50" relative="1" as="geometry">
            <mxPoint x="827" y="410.5" as="sourcePoint" />
            <mxPoint x="1027" y="410.5" as="targetPoint" />
          </mxGeometry>
        </mxCell>
        <mxCell id="aFBxvqd-sywQT1AkZxLm-106" value="" style="endArrow=none;html=1;rounded=0;entryX=0.25;entryY=0;entryDx=0;entryDy=0;fontSize=20;fontStyle=1;strokeWidth=2;" parent="1" target="aFBxvqd-sywQT1AkZxLm-103" edge="1">
          <mxGeometry width="50" height="50" relative="1" as="geometry">
            <mxPoint x="876.9999999999999" y="380" as="sourcePoint" />
            <mxPoint x="1187" y="430" as="targetPoint" />
          </mxGeometry>
        </mxCell>
        <mxCell id="aFBxvqd-sywQT1AkZxLm-107" value="" style="endArrow=none;html=1;rounded=0;entryX=0.25;entryY=0;entryDx=0;entryDy=0;fontSize=20;fontStyle=1;strokeWidth=2;" parent="1" edge="1">
          <mxGeometry width="50" height="50" relative="1" as="geometry">
            <mxPoint x="976.9999999999999" y="380" as="sourcePoint" />
            <mxPoint x="976.9999999999999" y="340" as="targetPoint" />
          </mxGeometry>
        </mxCell>
        <mxCell id="aFBxvqd-sywQT1AkZxLm-108" value="" style="endArrow=none;html=1;rounded=0;entryX=0.25;entryY=0;entryDx=0;entryDy=0;fontSize=20;fontStyle=1;strokeWidth=2;" parent="1" edge="1">
          <mxGeometry width="50" height="50" relative="1" as="geometry">
            <mxPoint x="977.9999999999999" y="450" as="sourcePoint" />
            <mxPoint x="977.9999999999999" y="410" as="targetPoint" />
          </mxGeometry>
        </mxCell>
        <mxCell id="aFBxvqd-sywQT1AkZxLm-109" value="" style="endArrow=none;html=1;rounded=0;entryX=0.25;entryY=0;entryDx=0;entryDy=0;fontSize=20;fontStyle=1;strokeWidth=2;" parent="1" edge="1">
          <mxGeometry width="50" height="50" relative="1" as="geometry">
            <mxPoint x="876.9999999999999" y="451" as="sourcePoint" />
            <mxPoint x="876.9999999999999" y="411" as="targetPoint" />
          </mxGeometry>
        </mxCell>
        <mxCell id="aFBxvqd-sywQT1AkZxLm-177" style="edgeStyle=orthogonalEdgeStyle;rounded=0;orthogonalLoop=1;jettySize=auto;html=1;exitX=1;exitY=0.5;exitDx=0;exitDy=0;entryX=0;entryY=0.75;entryDx=0;entryDy=0;fontSize=20;fontStyle=1;strokeWidth=2;" parent="1" source="aFBxvqd-sywQT1AkZxLm-110" target="aFBxvqd-sywQT1AkZxLm-137" edge="1">
          <mxGeometry relative="1" as="geometry">
            <Array as="points">
              <mxPoint x="1080" y="133" />
              <mxPoint x="1080" y="257" />
            </Array>
          </mxGeometry>
        </mxCell>
        <mxCell id="aFBxvqd-sywQT1AkZxLm-110" value="&lt;font style=&quot;font-size: 20px;&quot;&gt;J&lt;/font&gt;" style="rounded=0;whiteSpace=wrap;html=1;fontSize=20;fontStyle=1;strokeWidth=2;" parent="1" vertex="1">
          <mxGeometry x="824.4" y="78" width="200" height="110" as="geometry" />
        </mxCell>
        <mxCell id="aFBxvqd-sywQT1AkZxLm-111" value="" style="endArrow=none;html=1;rounded=0;entryX=1.007;entryY=0.365;entryDx=0;entryDy=0;exitX=0;exitY=0.362;exitDx=0;exitDy=0;exitPerimeter=0;entryPerimeter=0;elbow=vertical;fontSize=20;fontStyle=1;strokeWidth=2;" parent="1" source="aFBxvqd-sywQT1AkZxLm-110" target="aFBxvqd-sywQT1AkZxLm-110" edge="1">
          <mxGeometry width="50" height="50" relative="1" as="geometry">
            <mxPoint x="860.4" y="188" as="sourcePoint" />
            <mxPoint x="860.4" y="78" as="targetPoint" />
          </mxGeometry>
        </mxCell>
        <mxCell id="aFBxvqd-sywQT1AkZxLm-112" value="" style="endArrow=none;html=1;rounded=0;entryX=1;entryY=0.75;entryDx=0;entryDy=0;exitX=0;exitY=0.75;exitDx=0;exitDy=0;fontSize=20;fontStyle=1;strokeWidth=2;" parent="1" edge="1">
          <mxGeometry width="50" height="50" relative="1" as="geometry">
            <mxPoint x="824.4" y="148.5" as="sourcePoint" />
            <mxPoint x="1024.4" y="148.5" as="targetPoint" />
          </mxGeometry>
        </mxCell>
        <mxCell id="aFBxvqd-sywQT1AkZxLm-113" value="" style="endArrow=none;html=1;rounded=0;entryX=0.25;entryY=0;entryDx=0;entryDy=0;fontSize=20;fontStyle=1;strokeWidth=2;" parent="1" target="aFBxvqd-sywQT1AkZxLm-110" edge="1">
          <mxGeometry width="50" height="50" relative="1" as="geometry">
            <mxPoint x="874.4" y="118" as="sourcePoint" />
            <mxPoint x="1184.4" y="168" as="targetPoint" />
          </mxGeometry>
        </mxCell>
        <mxCell id="aFBxvqd-sywQT1AkZxLm-114" value="" style="endArrow=none;html=1;rounded=0;entryX=0.25;entryY=0;entryDx=0;entryDy=0;fontSize=20;fontStyle=1;strokeWidth=2;" parent="1" edge="1">
          <mxGeometry width="50" height="50" relative="1" as="geometry">
            <mxPoint x="974.4" y="118" as="sourcePoint" />
            <mxPoint x="974.4" y="78" as="targetPoint" />
          </mxGeometry>
        </mxCell>
        <mxCell id="aFBxvqd-sywQT1AkZxLm-115" value="" style="endArrow=none;html=1;rounded=0;entryX=0.25;entryY=0;entryDx=0;entryDy=0;fontSize=20;fontStyle=1;strokeWidth=2;" parent="1" edge="1">
          <mxGeometry width="50" height="50" relative="1" as="geometry">
            <mxPoint x="975.4" y="188" as="sourcePoint" />
            <mxPoint x="975.4" y="148" as="targetPoint" />
          </mxGeometry>
        </mxCell>
        <mxCell id="aFBxvqd-sywQT1AkZxLm-116" value="" style="endArrow=none;html=1;rounded=0;entryX=0.25;entryY=0;entryDx=0;entryDy=0;fontSize=20;fontStyle=1;strokeWidth=2;" parent="1" edge="1">
          <mxGeometry width="50" height="50" relative="1" as="geometry">
            <mxPoint x="874.4" y="189" as="sourcePoint" />
            <mxPoint x="874.4" y="149" as="targetPoint" />
          </mxGeometry>
        </mxCell>
        <mxCell id="aFBxvqd-sywQT1AkZxLm-118" style="edgeStyle=orthogonalEdgeStyle;rounded=0;orthogonalLoop=1;jettySize=auto;html=1;exitX=1;exitY=0.5;exitDx=0;exitDy=0;entryX=0.002;entryY=0.618;entryDx=0;entryDy=0;entryPerimeter=0;fontSize=20;fontStyle=1;strokeWidth=2;" parent="1" source="aFBxvqd-sywQT1AkZxLm-2" target="aFBxvqd-sywQT1AkZxLm-103" edge="1">
          <mxGeometry relative="1" as="geometry">
            <Array as="points">
              <mxPoint x="750" y="265" />
              <mxPoint x="750" y="408" />
            </Array>
          </mxGeometry>
        </mxCell>
        <mxCell id="aFBxvqd-sywQT1AkZxLm-179" style="edgeStyle=orthogonalEdgeStyle;rounded=0;orthogonalLoop=1;jettySize=auto;html=1;exitX=1;exitY=0.5;exitDx=0;exitDy=0;entryX=0;entryY=0.75;entryDx=0;entryDy=0;fontSize=20;fontStyle=1;strokeWidth=2;" parent="1" source="aFBxvqd-sywQT1AkZxLm-129" target="aFBxvqd-sywQT1AkZxLm-158" edge="1">
          <mxGeometry relative="1" as="geometry" />
        </mxCell>
        <mxCell id="aFBxvqd-sywQT1AkZxLm-129" value="&lt;font style=&quot;font-size: 20px;&quot;&gt;L&lt;/font&gt;" style="rounded=0;whiteSpace=wrap;html=1;fontSize=20;fontStyle=1;strokeWidth=2;" parent="1" vertex="1">
          <mxGeometry x="829" y="557" width="200" height="110" as="geometry" />
        </mxCell>
        <mxCell id="aFBxvqd-sywQT1AkZxLm-130" value="" style="endArrow=none;html=1;rounded=0;entryX=1.007;entryY=0.365;entryDx=0;entryDy=0;exitX=0;exitY=0.362;exitDx=0;exitDy=0;exitPerimeter=0;entryPerimeter=0;fontSize=20;fontStyle=1;strokeWidth=2;" parent="1" source="aFBxvqd-sywQT1AkZxLm-129" target="aFBxvqd-sywQT1AkZxLm-129" edge="1">
          <mxGeometry width="50" height="50" relative="1" as="geometry">
            <mxPoint x="864.9999999999999" y="667" as="sourcePoint" />
            <mxPoint x="864.9999999999999" y="557" as="targetPoint" />
          </mxGeometry>
        </mxCell>
        <mxCell id="aFBxvqd-sywQT1AkZxLm-131" value="" style="endArrow=none;html=1;rounded=0;entryX=1;entryY=0.75;entryDx=0;entryDy=0;exitX=0;exitY=0.75;exitDx=0;exitDy=0;fontSize=20;fontStyle=1;strokeWidth=2;" parent="1" edge="1">
          <mxGeometry width="50" height="50" relative="1" as="geometry">
            <mxPoint x="829" y="627.5" as="sourcePoint" />
            <mxPoint x="1029" y="627.5" as="targetPoint" />
          </mxGeometry>
        </mxCell>
        <mxCell id="aFBxvqd-sywQT1AkZxLm-132" value="" style="endArrow=none;html=1;rounded=0;entryX=0.25;entryY=0;entryDx=0;entryDy=0;fontSize=20;fontStyle=1;strokeWidth=2;" parent="1" target="aFBxvqd-sywQT1AkZxLm-129" edge="1">
          <mxGeometry width="50" height="50" relative="1" as="geometry">
            <mxPoint x="878.9999999999999" y="597" as="sourcePoint" />
            <mxPoint x="1189" y="647" as="targetPoint" />
          </mxGeometry>
        </mxCell>
        <mxCell id="aFBxvqd-sywQT1AkZxLm-133" value="" style="endArrow=none;html=1;rounded=0;entryX=0.25;entryY=0;entryDx=0;entryDy=0;fontSize=20;fontStyle=1;strokeWidth=2;" parent="1" edge="1">
          <mxGeometry width="50" height="50" relative="1" as="geometry">
            <mxPoint x="978.9999999999999" y="597" as="sourcePoint" />
            <mxPoint x="978.9999999999999" y="557" as="targetPoint" />
          </mxGeometry>
        </mxCell>
        <mxCell id="aFBxvqd-sywQT1AkZxLm-134" value="" style="endArrow=none;html=1;rounded=0;entryX=0.25;entryY=0;entryDx=0;entryDy=0;fontSize=20;fontStyle=1;strokeWidth=2;" parent="1" edge="1">
          <mxGeometry width="50" height="50" relative="1" as="geometry">
            <mxPoint x="979.9999999999999" y="667" as="sourcePoint" />
            <mxPoint x="979.9999999999999" y="627" as="targetPoint" />
          </mxGeometry>
        </mxCell>
        <mxCell id="aFBxvqd-sywQT1AkZxLm-135" value="" style="endArrow=none;html=1;rounded=0;entryX=0.25;entryY=0;entryDx=0;entryDy=0;fontSize=20;fontStyle=1;strokeWidth=2;" parent="1" edge="1">
          <mxGeometry width="50" height="50" relative="1" as="geometry">
            <mxPoint x="878.9999999999999" y="668" as="sourcePoint" />
            <mxPoint x="878.9999999999999" y="628" as="targetPoint" />
          </mxGeometry>
        </mxCell>
        <mxCell id="aFBxvqd-sywQT1AkZxLm-209" style="edgeStyle=orthogonalEdgeStyle;rounded=0;orthogonalLoop=1;jettySize=auto;html=1;exitX=1;exitY=0.5;exitDx=0;exitDy=0;entryX=0;entryY=0.75;entryDx=0;entryDy=0;fillColor=#f8cecc;strokeColor=#b85450;fontSize=20;fontStyle=1;strokeWidth=2;" parent="1" source="aFBxvqd-sywQT1AkZxLm-137" target="aFBxvqd-sywQT1AkZxLm-187" edge="1">
          <mxGeometry relative="1" as="geometry" />
        </mxCell>
        <mxCell id="aFBxvqd-sywQT1AkZxLm-137" value="&lt;font style=&quot;font-size: 20px;&quot;&gt;N&lt;/font&gt;" style="rounded=0;whiteSpace=wrap;html=1;fontSize=20;fontStyle=1;strokeWidth=2;" parent="1" vertex="1">
          <mxGeometry x="1106.2" y="174" width="200" height="110" as="geometry" />
        </mxCell>
        <mxCell id="aFBxvqd-sywQT1AkZxLm-138" value="" style="endArrow=none;html=1;rounded=0;entryX=1.007;entryY=0.365;entryDx=0;entryDy=0;exitX=0;exitY=0.362;exitDx=0;exitDy=0;exitPerimeter=0;entryPerimeter=0;fontSize=20;fontStyle=1;strokeWidth=2;" parent="1" source="aFBxvqd-sywQT1AkZxLm-137" target="aFBxvqd-sywQT1AkZxLm-137" edge="1">
          <mxGeometry width="50" height="50" relative="1" as="geometry">
            <mxPoint x="1142.2" y="284" as="sourcePoint" />
            <mxPoint x="1142.2" y="174" as="targetPoint" />
          </mxGeometry>
        </mxCell>
        <mxCell id="aFBxvqd-sywQT1AkZxLm-139" value="" style="endArrow=none;html=1;rounded=0;entryX=1;entryY=0.75;entryDx=0;entryDy=0;exitX=0;exitY=0.75;exitDx=0;exitDy=0;fontSize=20;fontStyle=1;strokeWidth=2;" parent="1" edge="1">
          <mxGeometry width="50" height="50" relative="1" as="geometry">
            <mxPoint x="1106.2" y="244.5" as="sourcePoint" />
            <mxPoint x="1306.2" y="244.5" as="targetPoint" />
          </mxGeometry>
        </mxCell>
        <mxCell id="aFBxvqd-sywQT1AkZxLm-140" value="" style="endArrow=none;html=1;rounded=0;entryX=0.25;entryY=0;entryDx=0;entryDy=0;fontSize=20;fontStyle=1;strokeWidth=2;" parent="1" target="aFBxvqd-sywQT1AkZxLm-137" edge="1">
          <mxGeometry width="50" height="50" relative="1" as="geometry">
            <mxPoint x="1156.2" y="214" as="sourcePoint" />
            <mxPoint x="1466.2" y="264" as="targetPoint" />
          </mxGeometry>
        </mxCell>
        <mxCell id="aFBxvqd-sywQT1AkZxLm-141" value="" style="endArrow=none;html=1;rounded=0;entryX=0.25;entryY=0;entryDx=0;entryDy=0;fontSize=20;fontStyle=1;strokeWidth=2;" parent="1" edge="1">
          <mxGeometry width="50" height="50" relative="1" as="geometry">
            <mxPoint x="1256.2" y="214" as="sourcePoint" />
            <mxPoint x="1256.2" y="174" as="targetPoint" />
          </mxGeometry>
        </mxCell>
        <mxCell id="aFBxvqd-sywQT1AkZxLm-142" value="" style="endArrow=none;html=1;rounded=0;entryX=0.25;entryY=0;entryDx=0;entryDy=0;fontSize=20;fontStyle=1;strokeWidth=2;" parent="1" edge="1">
          <mxGeometry width="50" height="50" relative="1" as="geometry">
            <mxPoint x="1257.2" y="284" as="sourcePoint" />
            <mxPoint x="1257.2" y="244" as="targetPoint" />
          </mxGeometry>
        </mxCell>
        <mxCell id="aFBxvqd-sywQT1AkZxLm-143" value="" style="endArrow=none;html=1;rounded=0;entryX=0.25;entryY=0;entryDx=0;entryDy=0;fontSize=20;fontStyle=1;strokeWidth=2;" parent="1" edge="1">
          <mxGeometry width="50" height="50" relative="1" as="geometry">
            <mxPoint x="1156.2" y="285" as="sourcePoint" />
            <mxPoint x="1156.2" y="245" as="targetPoint" />
          </mxGeometry>
        </mxCell>
        <mxCell id="aFBxvqd-sywQT1AkZxLm-194" style="edgeStyle=orthogonalEdgeStyle;rounded=0;orthogonalLoop=1;jettySize=auto;html=1;exitX=1;exitY=0.5;exitDx=0;exitDy=0;entryX=0;entryY=0.5;entryDx=0;entryDy=0;fontSize=20;fontStyle=1;strokeWidth=2;" parent="1" source="aFBxvqd-sywQT1AkZxLm-144" target="aFBxvqd-sywQT1AkZxLm-187" edge="1">
          <mxGeometry relative="1" as="geometry" />
        </mxCell>
        <mxCell id="aFBxvqd-sywQT1AkZxLm-144" value="&lt;font style=&quot;font-size: 20px;&quot;&gt;M&lt;/font&gt;" style="rounded=0;whiteSpace=wrap;html=1;fontSize=20;fontStyle=1;strokeWidth=2;" parent="1" vertex="1">
          <mxGeometry x="1107.6000000000001" y="-88" width="200" height="110" as="geometry" />
        </mxCell>
        <mxCell id="aFBxvqd-sywQT1AkZxLm-145" value="" style="endArrow=none;html=1;rounded=0;entryX=1.007;entryY=0.365;entryDx=0;entryDy=0;exitX=0;exitY=0.362;exitDx=0;exitDy=0;exitPerimeter=0;entryPerimeter=0;elbow=vertical;fontSize=20;fontStyle=1;strokeWidth=2;" parent="1" source="aFBxvqd-sywQT1AkZxLm-144" target="aFBxvqd-sywQT1AkZxLm-144" edge="1">
          <mxGeometry width="50" height="50" relative="1" as="geometry">
            <mxPoint x="1143.6000000000001" y="22" as="sourcePoint" />
            <mxPoint x="1143.6000000000001" y="-88" as="targetPoint" />
          </mxGeometry>
        </mxCell>
        <mxCell id="aFBxvqd-sywQT1AkZxLm-146" value="" style="endArrow=none;html=1;rounded=0;entryX=1;entryY=0.75;entryDx=0;entryDy=0;exitX=0;exitY=0.75;exitDx=0;exitDy=0;fontSize=20;fontStyle=1;strokeWidth=2;" parent="1" edge="1">
          <mxGeometry width="50" height="50" relative="1" as="geometry">
            <mxPoint x="1107.6000000000001" y="-17.5" as="sourcePoint" />
            <mxPoint x="1307.6000000000001" y="-17.5" as="targetPoint" />
          </mxGeometry>
        </mxCell>
        <mxCell id="aFBxvqd-sywQT1AkZxLm-147" value="" style="endArrow=none;html=1;rounded=0;entryX=0.25;entryY=0;entryDx=0;entryDy=0;fontSize=20;fontStyle=1;strokeWidth=2;" parent="1" target="aFBxvqd-sywQT1AkZxLm-144" edge="1">
          <mxGeometry width="50" height="50" relative="1" as="geometry">
            <mxPoint x="1157.6000000000001" y="-48" as="sourcePoint" />
            <mxPoint x="1467.6000000000001" y="2" as="targetPoint" />
          </mxGeometry>
        </mxCell>
        <mxCell id="aFBxvqd-sywQT1AkZxLm-148" value="" style="endArrow=none;html=1;rounded=0;entryX=0.25;entryY=0;entryDx=0;entryDy=0;fontSize=20;fontStyle=1;strokeWidth=2;" parent="1" edge="1">
          <mxGeometry width="50" height="50" relative="1" as="geometry">
            <mxPoint x="1257.6000000000001" y="-48" as="sourcePoint" />
            <mxPoint x="1257.6000000000001" y="-88" as="targetPoint" />
          </mxGeometry>
        </mxCell>
        <mxCell id="aFBxvqd-sywQT1AkZxLm-149" value="" style="endArrow=none;html=1;rounded=0;entryX=0.25;entryY=0;entryDx=0;entryDy=0;fontSize=20;fontStyle=1;strokeWidth=2;" parent="1" edge="1">
          <mxGeometry width="50" height="50" relative="1" as="geometry">
            <mxPoint x="1258.6000000000001" y="22" as="sourcePoint" />
            <mxPoint x="1258.6000000000001" y="-18" as="targetPoint" />
          </mxGeometry>
        </mxCell>
        <mxCell id="aFBxvqd-sywQT1AkZxLm-150" value="" style="endArrow=none;html=1;rounded=0;entryX=0.25;entryY=0;entryDx=0;entryDy=0;fontSize=20;fontStyle=1;strokeWidth=2;" parent="1" edge="1">
          <mxGeometry width="50" height="50" relative="1" as="geometry">
            <mxPoint x="1157.6000000000001" y="23" as="sourcePoint" />
            <mxPoint x="1157.6000000000001" y="-17" as="targetPoint" />
          </mxGeometry>
        </mxCell>
        <mxCell id="aFBxvqd-sywQT1AkZxLm-210" style="edgeStyle=orthogonalEdgeStyle;rounded=0;orthogonalLoop=1;jettySize=auto;html=1;exitX=1;exitY=0.5;exitDx=0;exitDy=0;entryX=0;entryY=0.75;entryDx=0;entryDy=0;fontSize=20;fontStyle=1;strokeWidth=2;" parent="1" source="aFBxvqd-sywQT1AkZxLm-158" target="aFBxvqd-sywQT1AkZxLm-201" edge="1">
          <mxGeometry relative="1" as="geometry">
            <mxPoint x="2090" y="-50" as="targetPoint" />
            <Array as="points">
              <mxPoint x="1610" y="415" />
              <mxPoint x="1610" y="181" />
            </Array>
          </mxGeometry>
        </mxCell>
        <mxCell id="aFBxvqd-sywQT1AkZxLm-158" value="&lt;font style=&quot;font-size: 20px;&quot;&gt;O&lt;/font&gt;" style="rounded=0;whiteSpace=wrap;html=1;fontSize=20;fontStyle=1;strokeWidth=2;" parent="1" vertex="1">
          <mxGeometry x="1131.2" y="360" width="200" height="110" as="geometry" />
        </mxCell>
        <mxCell id="aFBxvqd-sywQT1AkZxLm-159" value="" style="endArrow=none;html=1;rounded=0;entryX=1.007;entryY=0.365;entryDx=0;entryDy=0;exitX=0;exitY=0.362;exitDx=0;exitDy=0;exitPerimeter=0;entryPerimeter=0;elbow=vertical;fontSize=20;fontStyle=1;strokeWidth=2;" parent="1" source="aFBxvqd-sywQT1AkZxLm-158" target="aFBxvqd-sywQT1AkZxLm-158" edge="1">
          <mxGeometry width="50" height="50" relative="1" as="geometry">
            <mxPoint x="1167.2" y="470" as="sourcePoint" />
            <mxPoint x="1167.2" y="360" as="targetPoint" />
          </mxGeometry>
        </mxCell>
        <mxCell id="aFBxvqd-sywQT1AkZxLm-160" value="" style="endArrow=none;html=1;rounded=0;entryX=1;entryY=0.75;entryDx=0;entryDy=0;exitX=0;exitY=0.75;exitDx=0;exitDy=0;fontSize=20;fontStyle=1;strokeWidth=2;" parent="1" edge="1">
          <mxGeometry width="50" height="50" relative="1" as="geometry">
            <mxPoint x="1131.2" y="430.5" as="sourcePoint" />
            <mxPoint x="1331.2" y="430.5" as="targetPoint" />
          </mxGeometry>
        </mxCell>
        <mxCell id="aFBxvqd-sywQT1AkZxLm-161" value="" style="endArrow=none;html=1;rounded=0;entryX=0.25;entryY=0;entryDx=0;entryDy=0;fontSize=20;fontStyle=1;strokeWidth=2;" parent="1" target="aFBxvqd-sywQT1AkZxLm-158" edge="1">
          <mxGeometry width="50" height="50" relative="1" as="geometry">
            <mxPoint x="1181.2" y="400" as="sourcePoint" />
            <mxPoint x="1491.2" y="450" as="targetPoint" />
          </mxGeometry>
        </mxCell>
        <mxCell id="aFBxvqd-sywQT1AkZxLm-162" value="" style="endArrow=none;html=1;rounded=0;entryX=0.25;entryY=0;entryDx=0;entryDy=0;fontSize=20;fontStyle=1;strokeWidth=2;" parent="1" edge="1">
          <mxGeometry width="50" height="50" relative="1" as="geometry">
            <mxPoint x="1281.2" y="400" as="sourcePoint" />
            <mxPoint x="1281.2" y="360" as="targetPoint" />
          </mxGeometry>
        </mxCell>
        <mxCell id="aFBxvqd-sywQT1AkZxLm-163" value="" style="endArrow=none;html=1;rounded=0;entryX=0.25;entryY=0;entryDx=0;entryDy=0;fontSize=20;fontStyle=1;strokeWidth=2;" parent="1" edge="1">
          <mxGeometry width="50" height="50" relative="1" as="geometry">
            <mxPoint x="1282.2" y="470" as="sourcePoint" />
            <mxPoint x="1282.2" y="430" as="targetPoint" />
          </mxGeometry>
        </mxCell>
        <mxCell id="aFBxvqd-sywQT1AkZxLm-164" value="" style="endArrow=none;html=1;rounded=0;entryX=0.25;entryY=0;entryDx=0;entryDy=0;fontSize=20;fontStyle=1;strokeWidth=2;" parent="1" edge="1">
          <mxGeometry width="50" height="50" relative="1" as="geometry">
            <mxPoint x="1181.2" y="471" as="sourcePoint" />
            <mxPoint x="1181.2" y="431" as="targetPoint" />
          </mxGeometry>
        </mxCell>
        <mxCell id="aFBxvqd-sywQT1AkZxLm-199" style="edgeStyle=orthogonalEdgeStyle;rounded=0;orthogonalLoop=1;jettySize=auto;html=1;exitX=1;exitY=0.5;exitDx=0;exitDy=0;entryX=0;entryY=0.5;entryDx=0;entryDy=0;fillColor=#f8cecc;strokeColor=#b85450;fontSize=20;fontStyle=1;strokeWidth=2;" parent="1" source="aFBxvqd-sywQT1AkZxLm-187" target="aFBxvqd-sywQT1AkZxLm-201" edge="1">
          <mxGeometry relative="1" as="geometry">
            <mxPoint x="1670.2" y="280.5" as="targetPoint" />
          </mxGeometry>
        </mxCell>
        <mxCell id="aFBxvqd-sywQT1AkZxLm-187" value="&lt;font style=&quot;font-size: 20px;&quot;&gt;P&lt;/font&gt;" style="rounded=0;whiteSpace=wrap;html=1;fontSize=20;fontStyle=1;strokeWidth=2;" parent="1" vertex="1">
          <mxGeometry x="1386.2" y="97.5" width="200" height="110" as="geometry" />
        </mxCell>
        <mxCell id="aFBxvqd-sywQT1AkZxLm-188" value="" style="endArrow=none;html=1;rounded=0;entryX=1.007;entryY=0.365;entryDx=0;entryDy=0;exitX=0;exitY=0.362;exitDx=0;exitDy=0;exitPerimeter=0;entryPerimeter=0;elbow=vertical;fontSize=20;fontStyle=1;strokeWidth=2;" parent="1" source="aFBxvqd-sywQT1AkZxLm-187" target="aFBxvqd-sywQT1AkZxLm-187" edge="1">
          <mxGeometry width="50" height="50" relative="1" as="geometry">
            <mxPoint x="1422.2" y="207.5" as="sourcePoint" />
            <mxPoint x="1422.2" y="97.5" as="targetPoint" />
          </mxGeometry>
        </mxCell>
        <mxCell id="aFBxvqd-sywQT1AkZxLm-189" value="" style="endArrow=none;html=1;rounded=0;entryX=1;entryY=0.75;entryDx=0;entryDy=0;exitX=0;exitY=0.75;exitDx=0;exitDy=0;fontSize=20;fontStyle=1;strokeWidth=2;" parent="1" edge="1">
          <mxGeometry width="50" height="50" relative="1" as="geometry">
            <mxPoint x="1386.2" y="168" as="sourcePoint" />
            <mxPoint x="1586.2" y="168" as="targetPoint" />
          </mxGeometry>
        </mxCell>
        <mxCell id="aFBxvqd-sywQT1AkZxLm-190" value="" style="endArrow=none;html=1;rounded=0;entryX=0.25;entryY=0;entryDx=0;entryDy=0;fontSize=20;fontStyle=1;strokeWidth=2;" parent="1" target="aFBxvqd-sywQT1AkZxLm-187" edge="1">
          <mxGeometry width="50" height="50" relative="1" as="geometry">
            <mxPoint x="1436.2" y="137.5" as="sourcePoint" />
            <mxPoint x="1746.1999999999998" y="187.5" as="targetPoint" />
          </mxGeometry>
        </mxCell>
        <mxCell id="aFBxvqd-sywQT1AkZxLm-191" value="" style="endArrow=none;html=1;rounded=0;entryX=0.25;entryY=0;entryDx=0;entryDy=0;fontSize=20;fontStyle=1;strokeWidth=2;" parent="1" edge="1">
          <mxGeometry width="50" height="50" relative="1" as="geometry">
            <mxPoint x="1536.2" y="137.5" as="sourcePoint" />
            <mxPoint x="1536.2" y="97.5" as="targetPoint" />
          </mxGeometry>
        </mxCell>
        <mxCell id="aFBxvqd-sywQT1AkZxLm-192" value="" style="endArrow=none;html=1;rounded=0;entryX=0.25;entryY=0;entryDx=0;entryDy=0;fontSize=20;fontStyle=1;strokeWidth=2;" parent="1" edge="1">
          <mxGeometry width="50" height="50" relative="1" as="geometry">
            <mxPoint x="1537.2" y="207.5" as="sourcePoint" />
            <mxPoint x="1537.2" y="167.5" as="targetPoint" />
          </mxGeometry>
        </mxCell>
        <mxCell id="aFBxvqd-sywQT1AkZxLm-193" value="" style="endArrow=none;html=1;rounded=0;entryX=0.25;entryY=0;entryDx=0;entryDy=0;fontSize=20;fontStyle=1;strokeWidth=2;" parent="1" edge="1">
          <mxGeometry width="50" height="50" relative="1" as="geometry">
            <mxPoint x="1436.2" y="208.5" as="sourcePoint" />
            <mxPoint x="1436.2" y="168.5" as="targetPoint" />
          </mxGeometry>
        </mxCell>
        <mxCell id="aFBxvqd-sywQT1AkZxLm-200" style="edgeStyle=orthogonalEdgeStyle;rounded=0;orthogonalLoop=1;jettySize=auto;html=1;exitX=1;exitY=0.5;exitDx=0;exitDy=0;entryX=0;entryY=0.5;entryDx=0;entryDy=0;fillColor=#f8cecc;strokeColor=#b85450;fontSize=20;fontStyle=1;strokeWidth=2;" parent="1" source="aFBxvqd-sywQT1AkZxLm-201" target="aFBxvqd-sywQT1AkZxLm-211" edge="1">
          <mxGeometry relative="1" as="geometry">
            <mxPoint x="1933.1999999999998" y="153.5" as="targetPoint" />
          </mxGeometry>
        </mxCell>
        <mxCell id="aFBxvqd-sywQT1AkZxLm-201" value="&lt;font style=&quot;font-size: 20px;&quot;&gt;Q&lt;/font&gt;" style="rounded=0;whiteSpace=wrap;html=1;fontSize=20;fontStyle=1;strokeWidth=2;" parent="1" vertex="1">
          <mxGeometry x="1646.1999999999998" y="98.5" width="200" height="110" as="geometry" />
        </mxCell>
        <mxCell id="aFBxvqd-sywQT1AkZxLm-202" value="" style="endArrow=none;html=1;rounded=0;entryX=1.007;entryY=0.365;entryDx=0;entryDy=0;exitX=0;exitY=0.362;exitDx=0;exitDy=0;exitPerimeter=0;entryPerimeter=0;elbow=vertical;fontSize=20;fontStyle=1;strokeWidth=2;" parent="1" source="aFBxvqd-sywQT1AkZxLm-201" target="aFBxvqd-sywQT1AkZxLm-201" edge="1">
          <mxGeometry width="50" height="50" relative="1" as="geometry">
            <mxPoint x="1682.1999999999998" y="208.5" as="sourcePoint" />
            <mxPoint x="1682.1999999999998" y="98.5" as="targetPoint" />
          </mxGeometry>
        </mxCell>
        <mxCell id="aFBxvqd-sywQT1AkZxLm-203" value="" style="endArrow=none;html=1;rounded=0;entryX=1;entryY=0.75;entryDx=0;entryDy=0;exitX=0;exitY=0.75;exitDx=0;exitDy=0;fontSize=20;fontStyle=1;strokeWidth=2;" parent="1" edge="1">
          <mxGeometry width="50" height="50" relative="1" as="geometry">
            <mxPoint x="1646.1999999999998" y="169" as="sourcePoint" />
            <mxPoint x="1846.1999999999998" y="169" as="targetPoint" />
          </mxGeometry>
        </mxCell>
        <mxCell id="aFBxvqd-sywQT1AkZxLm-204" value="" style="endArrow=none;html=1;rounded=0;entryX=0.25;entryY=0;entryDx=0;entryDy=0;fontSize=20;fontStyle=1;strokeWidth=2;" parent="1" target="aFBxvqd-sywQT1AkZxLm-201" edge="1">
          <mxGeometry width="50" height="50" relative="1" as="geometry">
            <mxPoint x="1696.1999999999998" y="138.5" as="sourcePoint" />
            <mxPoint x="2006.1999999999998" y="188.5" as="targetPoint" />
          </mxGeometry>
        </mxCell>
        <mxCell id="aFBxvqd-sywQT1AkZxLm-205" value="" style="endArrow=none;html=1;rounded=0;entryX=0.25;entryY=0;entryDx=0;entryDy=0;fontSize=20;fontStyle=1;strokeWidth=2;" parent="1" edge="1">
          <mxGeometry width="50" height="50" relative="1" as="geometry">
            <mxPoint x="1796.1999999999998" y="138.5" as="sourcePoint" />
            <mxPoint x="1796.1999999999998" y="98.5" as="targetPoint" />
          </mxGeometry>
        </mxCell>
        <mxCell id="aFBxvqd-sywQT1AkZxLm-206" value="" style="endArrow=none;html=1;rounded=0;entryX=0.25;entryY=0;entryDx=0;entryDy=0;fontSize=20;fontStyle=1;strokeWidth=2;" parent="1" edge="1">
          <mxGeometry width="50" height="50" relative="1" as="geometry">
            <mxPoint x="1797.1999999999998" y="208.5" as="sourcePoint" />
            <mxPoint x="1797.1999999999998" y="168.5" as="targetPoint" />
          </mxGeometry>
        </mxCell>
        <mxCell id="aFBxvqd-sywQT1AkZxLm-207" value="" style="endArrow=none;html=1;rounded=0;entryX=0.25;entryY=0;entryDx=0;entryDy=0;fontSize=20;fontStyle=1;strokeWidth=2;" parent="1" edge="1">
          <mxGeometry width="50" height="50" relative="1" as="geometry">
            <mxPoint x="1696.1999999999998" y="209.5" as="sourcePoint" />
            <mxPoint x="1696.1999999999998" y="169.5" as="targetPoint" />
          </mxGeometry>
        </mxCell>
        <mxCell id="aFBxvqd-sywQT1AkZxLm-211" value="&lt;font style=&quot;font-size: 20px;&quot;&gt;FIN&lt;/font&gt;" style="rounded=0;whiteSpace=wrap;html=1;fontSize=20;fontStyle=1;strokeWidth=2;fillColor=#d5e8d4;strokeColor=#82b366;" parent="1" vertex="1">
          <mxGeometry x="1923.1999999999998" y="118.5" width="120" height="70" as="geometry" />
        </mxCell>
        <mxCell id="aFBxvqd-sywQT1AkZxLm-213" value="&lt;font style=&quot;font-size: 20px;&quot;&gt;0&lt;/font&gt;" style="text;html=1;align=center;verticalAlign=middle;whiteSpace=wrap;rounded=0;fontSize=20;fontStyle=1;strokeWidth=2;" parent="1" vertex="1">
          <mxGeometry x="201.00000000000003" y="15.5" width="60" height="30" as="geometry" />
        </mxCell>
        <mxCell id="aFBxvqd-sywQT1AkZxLm-214" value="&lt;font style=&quot;font-size: 20px;&quot;&gt;1&lt;/font&gt;" style="text;html=1;align=center;verticalAlign=middle;whiteSpace=wrap;rounded=0;fontSize=20;fontStyle=1;strokeWidth=2;" parent="1" vertex="1">
          <mxGeometry x="352.4" y="15.5" width="60" height="30" as="geometry" />
        </mxCell>
        <mxCell id="aFBxvqd-sywQT1AkZxLm-215" value="&lt;font style=&quot;font-size: 20px;&quot;&gt;1&lt;/font&gt;" style="text;html=1;align=center;verticalAlign=middle;whiteSpace=wrap;rounded=0;fontSize=20;fontStyle=1;strokeWidth=2;" parent="1" vertex="1">
          <mxGeometry x="271" y="15.5" width="60" height="30" as="geometry" />
        </mxCell>
        <mxCell id="aFBxvqd-sywQT1AkZxLm-216" value="&lt;font style=&quot;font-size: 20px;&quot;&gt;0&lt;/font&gt;" style="text;html=1;align=center;verticalAlign=middle;whiteSpace=wrap;rounded=0;fontSize=20;fontStyle=1;strokeWidth=2;" parent="1" vertex="1">
          <mxGeometry x="201.00000000000003" y="214.5" width="60" height="30" as="geometry" />
        </mxCell>
        <mxCell id="aFBxvqd-sywQT1AkZxLm-217" value="2" style="text;html=1;align=center;verticalAlign=middle;whiteSpace=wrap;rounded=0;fontSize=20;fontStyle=1;strokeWidth=2;" parent="1" vertex="1">
          <mxGeometry x="262" y="214.5" width="60" height="30" as="geometry" />
        </mxCell>
        <mxCell id="aFBxvqd-sywQT1AkZxLm-218" value="&lt;font style=&quot;font-size: 20px;&quot;&gt;2&lt;/font&gt;" style="text;html=1;align=center;verticalAlign=middle;whiteSpace=wrap;rounded=0;fontSize=20;fontStyle=1;strokeWidth=2;" parent="1" vertex="1">
          <mxGeometry x="342" y="215.5" width="60" height="30" as="geometry" />
        </mxCell>
        <mxCell id="aFBxvqd-sywQT1AkZxLm-219" value="&lt;font style=&quot;font-size: 20px;&quot;&gt;5&lt;/font&gt;" style="text;html=1;align=center;verticalAlign=middle;whiteSpace=wrap;rounded=0;fillColor=#dae8fc;strokeColor=#6c8ebf;fontSize=20;fontStyle=1;strokeWidth=2;" parent="1" vertex="1">
          <mxGeometry x="347" y="286.5" width="60" height="30" as="geometry" />
        </mxCell>
        <mxCell id="aFBxvqd-sywQT1AkZxLm-220" value="&lt;font style=&quot;font-size: 20px;&quot;&gt;0&lt;/font&gt;" style="text;html=1;align=center;verticalAlign=middle;whiteSpace=wrap;rounded=0;fontSize=20;fontStyle=1;strokeWidth=2;" parent="1" vertex="1">
          <mxGeometry x="275" y="286.5" width="60" height="30" as="geometry" />
        </mxCell>
        <mxCell id="aFBxvqd-sywQT1AkZxLm-221" value="&lt;font style=&quot;font-size: 20px;&quot;&gt;3&lt;/font&gt;" style="text;html=1;align=center;verticalAlign=middle;whiteSpace=wrap;rounded=0;fillColor=#ffe6cc;strokeColor=#d79b00;fontSize=20;fontStyle=1;strokeWidth=2;" parent="1" vertex="1">
          <mxGeometry x="198.00000000000003" y="286.5" width="60" height="30" as="geometry" />
        </mxCell>
        <mxCell id="aFBxvqd-sywQT1AkZxLm-222" value="&lt;font style=&quot;font-size: 20px;&quot;&gt;0&lt;/font&gt;" style="text;html=1;align=center;verticalAlign=middle;whiteSpace=wrap;rounded=0;fillColor=#ffe6cc;strokeColor=#d79b00;fontSize=20;fontStyle=1;strokeWidth=2;" parent="1" vertex="1">
          <mxGeometry x="200.00000000000003" y="84.5" width="60" height="30" as="geometry" />
        </mxCell>
        <mxCell id="aFBxvqd-sywQT1AkZxLm-223" value="&lt;font style=&quot;font-size: 20px;&quot;&gt;0&lt;/font&gt;" style="text;html=1;align=center;verticalAlign=middle;whiteSpace=wrap;rounded=0;fontSize=20;fontStyle=1;strokeWidth=2;" parent="1" vertex="1">
          <mxGeometry x="273" y="85.5" width="60" height="30" as="geometry" />
        </mxCell>
        <mxCell id="aFBxvqd-sywQT1AkZxLm-224" value="&lt;font style=&quot;font-size: 20px;&quot;&gt;1&lt;/font&gt;" style="text;html=1;align=center;verticalAlign=middle;whiteSpace=wrap;rounded=0;fillColor=#dae8fc;strokeColor=#6c8ebf;fontSize=20;fontStyle=1;strokeWidth=2;" parent="1" vertex="1">
          <mxGeometry x="348" y="85.5" width="60" height="30" as="geometry" />
        </mxCell>
        <mxCell id="aFBxvqd-sywQT1AkZxLm-231" value="&lt;font style=&quot;font-size: 20px;&quot;&gt;1&lt;/font&gt;&lt;div style=&quot;font-size: 20px;&quot;&gt;&lt;font style=&quot;font-size: 20px;&quot;&gt;&lt;br style=&quot;font-size: 20px;&quot;&gt;&lt;/font&gt;&lt;/div&gt;" style="text;html=1;align=center;verticalAlign=middle;whiteSpace=wrap;rounded=0;fontSize=20;fontStyle=1;strokeWidth=2;" parent="1" vertex="1">
          <mxGeometry x="524" y="18" width="60" height="30" as="geometry" />
        </mxCell>
        <mxCell id="aFBxvqd-sywQT1AkZxLm-232" value="&lt;font style=&quot;font-size: 20px;&quot;&gt;2&lt;/font&gt;" style="text;html=1;align=center;verticalAlign=middle;whiteSpace=wrap;rounded=0;fillColor=#ffe6cc;strokeColor=#d79b00;fontSize=20;fontStyle=1;strokeWidth=2;" parent="1" vertex="1">
          <mxGeometry x="523" y="87" width="60" height="30" as="geometry" />
        </mxCell>
        <mxCell id="aFBxvqd-sywQT1AkZxLm-233" value="&lt;font style=&quot;font-size: 20px;&quot;&gt;0&lt;/font&gt;" style="text;html=1;align=center;verticalAlign=middle;whiteSpace=wrap;rounded=0;fontSize=20;fontStyle=1;strokeWidth=2;" parent="1" vertex="1">
          <mxGeometry x="596" y="88" width="60" height="30" as="geometry" />
        </mxCell>
        <mxCell id="aFBxvqd-sywQT1AkZxLm-234" value="&lt;font style=&quot;font-size: 20px;&quot;&gt;5&lt;/font&gt;" style="text;html=1;align=center;verticalAlign=middle;whiteSpace=wrap;rounded=0;fillColor=#dae8fc;strokeColor=#6c8ebf;fontSize=20;fontStyle=1;strokeWidth=2;" parent="1" vertex="1">
          <mxGeometry x="671" y="88" width="60" height="30" as="geometry" />
        </mxCell>
        <mxCell id="aFBxvqd-sywQT1AkZxLm-235" value="&lt;span style=&quot;font-size: 20px;&quot;&gt;4&lt;/span&gt;" style="text;html=1;align=center;verticalAlign=middle;whiteSpace=wrap;rounded=0;fontSize=20;fontStyle=1;strokeWidth=2;" parent="1" vertex="1">
          <mxGeometry x="675.4" y="18" width="60" height="30" as="geometry" />
        </mxCell>
        <mxCell id="aFBxvqd-sywQT1AkZxLm-236" value="&lt;font style=&quot;font-size: 20px;&quot;&gt;3&lt;/font&gt;" style="text;html=1;align=center;verticalAlign=middle;whiteSpace=wrap;rounded=0;fontSize=20;fontStyle=1;strokeWidth=2;" parent="1" vertex="1">
          <mxGeometry x="594" y="18" width="60" height="30" as="geometry" />
        </mxCell>
        <mxCell id="aFBxvqd-sywQT1AkZxLm-243" value="1" style="text;html=1;align=center;verticalAlign=middle;whiteSpace=wrap;rounded=0;fontSize=20;fontStyle=1;strokeWidth=2;" parent="1" vertex="1">
          <mxGeometry x="537" y="-222" width="37" height="30" as="geometry" />
        </mxCell>
        <mxCell id="aFBxvqd-sywQT1AkZxLm-244" value="&lt;font style=&quot;font-size: 20px;&quot;&gt;5&lt;/font&gt;" style="text;html=1;align=center;verticalAlign=middle;whiteSpace=wrap;rounded=0;fontSize=20;fontStyle=1;strokeWidth=2;" parent="1" vertex="1">
          <mxGeometry x="688.4" y="-222" width="37" height="30" as="geometry" />
        </mxCell>
        <mxCell id="aFBxvqd-sywQT1AkZxLm-245" value="&lt;font style=&quot;font-size: 20px;&quot;&gt;4&lt;/font&gt;" style="text;html=1;align=center;verticalAlign=middle;whiteSpace=wrap;rounded=0;fontSize=20;fontStyle=1;strokeWidth=2;" parent="1" vertex="1">
          <mxGeometry x="607" y="-222" width="37" height="30" as="geometry" />
        </mxCell>
        <mxCell id="aFBxvqd-sywQT1AkZxLm-246" value="&lt;font style=&quot;font-size: 20px;&quot;&gt;1&lt;/font&gt;" style="text;html=1;align=center;verticalAlign=middle;whiteSpace=wrap;rounded=0;fillColor=#ffe6cc;strokeColor=#d79b00;fontSize=20;fontStyle=1;strokeWidth=2;" parent="1" vertex="1">
          <mxGeometry x="536" y="-153" width="37" height="30" as="geometry" />
        </mxCell>
        <mxCell id="aFBxvqd-sywQT1AkZxLm-247" value="&lt;font style=&quot;font-size: 20px;&quot;&gt;0&lt;/font&gt;" style="text;html=1;align=center;verticalAlign=middle;whiteSpace=wrap;rounded=0;fontSize=20;fontStyle=1;strokeWidth=2;" parent="1" vertex="1">
          <mxGeometry x="609" y="-152" width="37" height="30" as="geometry" />
        </mxCell>
        <mxCell id="aFBxvqd-sywQT1AkZxLm-248" value="&lt;font style=&quot;font-size: 20px;&quot;&gt;5&lt;/font&gt;" style="text;html=1;align=center;verticalAlign=middle;whiteSpace=wrap;rounded=0;fillColor=#dae8fc;strokeColor=#6c8ebf;fontSize=20;fontStyle=1;strokeWidth=2;" parent="1" vertex="1">
          <mxGeometry x="684" y="-152" width="37" height="30" as="geometry" />
        </mxCell>
        <mxCell id="aFBxvqd-sywQT1AkZxLm-249" value="&lt;font style=&quot;font-size: 20px;&quot;&gt;5&lt;/font&gt;" style="text;html=1;align=center;verticalAlign=middle;whiteSpace=wrap;rounded=0;fontSize=20;fontStyle=1;strokeWidth=2;" parent="1" vertex="1">
          <mxGeometry x="821" y="-260" width="60" height="30" as="geometry" />
        </mxCell>
        <mxCell id="aFBxvqd-sywQT1AkZxLm-250" value="&lt;font style=&quot;font-size: 20px;&quot;&gt;12&lt;/font&gt;" style="text;html=1;align=center;verticalAlign=middle;whiteSpace=wrap;rounded=0;fontSize=20;fontStyle=1;strokeWidth=2;" parent="1" vertex="1">
          <mxGeometry x="972.4" y="-260" width="60" height="30" as="geometry" />
        </mxCell>
        <mxCell id="aFBxvqd-sywQT1AkZxLm-251" value="&lt;font style=&quot;font-size: 20px;&quot;&gt;7&lt;/font&gt;" style="text;html=1;align=center;verticalAlign=middle;whiteSpace=wrap;rounded=0;fontSize=20;fontStyle=1;strokeWidth=2;" parent="1" vertex="1">
          <mxGeometry x="891.0000000000001" y="-260" width="60" height="30" as="geometry" />
        </mxCell>
        <mxCell id="aFBxvqd-sywQT1AkZxLm-252" value="&lt;font style=&quot;font-size: 20px;&quot;&gt;7&lt;/font&gt;" style="text;html=1;align=center;verticalAlign=middle;whiteSpace=wrap;rounded=0;fillColor=#ffe6cc;strokeColor=#d79b00;fontSize=20;fontStyle=1;strokeWidth=2;" parent="1" vertex="1">
          <mxGeometry x="820" y="-191" width="60" height="30" as="geometry" />
        </mxCell>
        <mxCell id="aFBxvqd-sywQT1AkZxLm-253" value="&lt;font style=&quot;font-size: 20px;&quot;&gt;0&lt;/font&gt;" style="text;html=1;align=center;verticalAlign=middle;whiteSpace=wrap;rounded=0;fontSize=20;fontStyle=1;strokeWidth=2;" parent="1" vertex="1">
          <mxGeometry x="893.0000000000001" y="-190" width="60" height="30" as="geometry" />
        </mxCell>
        <mxCell id="aFBxvqd-sywQT1AkZxLm-254" value="&lt;font style=&quot;font-size: 20px;&quot;&gt;14&lt;/font&gt;" style="text;html=1;align=center;verticalAlign=middle;whiteSpace=wrap;rounded=0;fillColor=#dae8fc;strokeColor=#6c8ebf;fontSize=20;fontStyle=1;strokeWidth=2;" parent="1" vertex="1">
          <mxGeometry x="968.0000000000001" y="-190" width="60" height="30" as="geometry" />
        </mxCell>
        <mxCell id="aFBxvqd-sywQT1AkZxLm-255" value="&lt;font style=&quot;font-size: 20px;&quot;&gt;5&lt;/font&gt;" style="text;html=1;align=center;verticalAlign=middle;whiteSpace=wrap;rounded=0;fontSize=20;fontStyle=1;strokeWidth=2;" parent="1" vertex="1">
          <mxGeometry x="823" y="-112" width="60" height="30" as="geometry" />
        </mxCell>
        <mxCell id="aFBxvqd-sywQT1AkZxLm-256" value="&lt;font style=&quot;font-size: 20px;&quot;&gt;13&lt;/font&gt;" style="text;html=1;align=center;verticalAlign=middle;whiteSpace=wrap;rounded=0;fontSize=20;fontStyle=1;strokeWidth=2;" parent="1" vertex="1">
          <mxGeometry x="974.4" y="-112" width="60" height="30" as="geometry" />
        </mxCell>
        <mxCell id="aFBxvqd-sywQT1AkZxLm-257" value="&lt;font style=&quot;font-size: 20px;&quot;&gt;8&lt;/font&gt;" style="text;html=1;align=center;verticalAlign=middle;whiteSpace=wrap;rounded=0;fontSize=20;fontStyle=1;strokeWidth=2;" parent="1" vertex="1">
          <mxGeometry x="892.9999999999999" y="-112" width="60" height="30" as="geometry" />
        </mxCell>
        <mxCell id="aFBxvqd-sywQT1AkZxLm-258" value="&lt;font style=&quot;font-size: 20px;&quot;&gt;5&lt;/font&gt;" style="text;html=1;align=center;verticalAlign=middle;whiteSpace=wrap;rounded=0;fillColor=#ffe6cc;strokeColor=#d79b00;fontSize=20;fontStyle=1;strokeWidth=2;" parent="1" vertex="1">
          <mxGeometry x="822" y="-43" width="60" height="30" as="geometry" />
        </mxCell>
        <mxCell id="aFBxvqd-sywQT1AkZxLm-259" value="&lt;font style=&quot;font-size: 20px;&quot;&gt;0&lt;/font&gt;" style="text;html=1;align=center;verticalAlign=middle;whiteSpace=wrap;rounded=0;fontSize=20;fontStyle=1;strokeWidth=2;" parent="1" vertex="1">
          <mxGeometry x="894.9999999999999" y="-42" width="60" height="30" as="geometry" />
        </mxCell>
        <mxCell id="aFBxvqd-sywQT1AkZxLm-260" value="&lt;font style=&quot;font-size: 20px;&quot;&gt;13&lt;/font&gt;" style="text;html=1;align=center;verticalAlign=middle;whiteSpace=wrap;rounded=0;fillColor=#dae8fc;strokeColor=#6c8ebf;fontSize=20;fontStyle=1;strokeWidth=2;" parent="1" vertex="1">
          <mxGeometry x="969.9999999999999" y="-42" width="60" height="30" as="geometry" />
        </mxCell>
        <mxCell id="aFBxvqd-sywQT1AkZxLm-261" value="&lt;font style=&quot;font-size: 20px;&quot;&gt;0&lt;/font&gt;" style="text;html=1;align=center;verticalAlign=middle;whiteSpace=wrap;rounded=0;fontSize=20;fontStyle=1;strokeWidth=2;" parent="1" vertex="1">
          <mxGeometry x="199.80000000000004" y="414.5" width="60" height="30" as="geometry" />
        </mxCell>
        <mxCell id="aFBxvqd-sywQT1AkZxLm-262" value="3" style="text;html=1;align=center;verticalAlign=middle;whiteSpace=wrap;rounded=0;fontSize=20;fontStyle=1;strokeWidth=2;" parent="1" vertex="1">
          <mxGeometry x="351.20000000000005" y="414.5" width="60" height="30" as="geometry" />
        </mxCell>
        <mxCell id="aFBxvqd-sywQT1AkZxLm-263" value="3" style="text;html=1;align=center;verticalAlign=middle;whiteSpace=wrap;rounded=0;fontSize=20;fontStyle=1;strokeWidth=2;" parent="1" vertex="1">
          <mxGeometry x="269.80000000000007" y="414.5" width="60" height="30" as="geometry" />
        </mxCell>
        <mxCell id="aFBxvqd-sywQT1AkZxLm-264" value="&lt;font style=&quot;font-size: 20px;&quot;&gt;0&lt;/font&gt;" style="text;html=1;align=center;verticalAlign=middle;whiteSpace=wrap;rounded=0;fillColor=#ffe6cc;strokeColor=#d79b00;fontSize=20;fontStyle=1;strokeWidth=2;" parent="1" vertex="1">
          <mxGeometry x="198.80000000000004" y="483.5" width="60" height="30" as="geometry" />
        </mxCell>
        <mxCell id="aFBxvqd-sywQT1AkZxLm-265" value="&lt;font style=&quot;font-size: 20px;&quot;&gt;0&lt;/font&gt;" style="text;html=1;align=center;verticalAlign=middle;whiteSpace=wrap;rounded=0;fontSize=20;fontStyle=1;strokeWidth=2;" parent="1" vertex="1">
          <mxGeometry x="271.80000000000007" y="484.5" width="60" height="30" as="geometry" />
        </mxCell>
        <mxCell id="aFBxvqd-sywQT1AkZxLm-266" value="&lt;font style=&quot;font-size: 20px;&quot;&gt;3&lt;/font&gt;" style="text;html=1;align=center;verticalAlign=middle;whiteSpace=wrap;rounded=0;fillColor=#dae8fc;strokeColor=#6c8ebf;fontSize=20;fontStyle=1;strokeWidth=2;" parent="1" vertex="1">
          <mxGeometry x="346.80000000000007" y="484.5" width="60" height="30" as="geometry" />
        </mxCell>
        <mxCell id="aFBxvqd-sywQT1AkZxLm-267" value="&lt;font style=&quot;font-size: 20px;&quot;&gt;3&lt;/font&gt;" style="text;html=1;align=center;verticalAlign=middle;whiteSpace=wrap;rounded=0;fontSize=20;fontStyle=1;strokeWidth=2;" parent="1" vertex="1">
          <mxGeometry x="521" y="415" width="60" height="30" as="geometry" />
        </mxCell>
        <mxCell id="aFBxvqd-sywQT1AkZxLm-268" value="&lt;font style=&quot;font-size: 20px;&quot;&gt;5&lt;/font&gt;" style="text;html=1;align=center;verticalAlign=middle;whiteSpace=wrap;rounded=0;fontSize=20;fontStyle=1;strokeWidth=2;" parent="1" vertex="1">
          <mxGeometry x="672.4" y="415" width="60" height="30" as="geometry" />
        </mxCell>
        <mxCell id="aFBxvqd-sywQT1AkZxLm-269" value="&lt;font style=&quot;font-size: 20px;&quot;&gt;2&lt;/font&gt;" style="text;html=1;align=center;verticalAlign=middle;whiteSpace=wrap;rounded=0;fontSize=20;fontStyle=1;strokeWidth=2;" parent="1" vertex="1">
          <mxGeometry x="591" y="415" width="60" height="30" as="geometry" />
        </mxCell>
        <mxCell id="aFBxvqd-sywQT1AkZxLm-270" value="&lt;font style=&quot;font-size: 20px;&quot;&gt;3&lt;/font&gt;" style="text;html=1;align=center;verticalAlign=middle;whiteSpace=wrap;rounded=0;fillColor=#ffe6cc;strokeColor=#d79b00;fontSize=20;fontStyle=1;strokeWidth=2;" parent="1" vertex="1">
          <mxGeometry x="520" y="484" width="60" height="30" as="geometry" />
        </mxCell>
        <mxCell id="aFBxvqd-sywQT1AkZxLm-271" value="&lt;font style=&quot;font-size: 20px;&quot;&gt;0&lt;/font&gt;" style="text;html=1;align=center;verticalAlign=middle;whiteSpace=wrap;rounded=0;fontSize=20;fontStyle=1;strokeWidth=2;" parent="1" vertex="1">
          <mxGeometry x="593" y="485" width="60" height="30" as="geometry" />
        </mxCell>
        <mxCell id="aFBxvqd-sywQT1AkZxLm-272" value="&lt;font style=&quot;font-size: 20px;&quot;&gt;5&lt;/font&gt;" style="text;html=1;align=center;verticalAlign=middle;whiteSpace=wrap;rounded=0;fillColor=#dae8fc;strokeColor=#6c8ebf;fontSize=20;fontStyle=1;strokeWidth=2;" parent="1" vertex="1">
          <mxGeometry x="668" y="485" width="60" height="30" as="geometry" />
        </mxCell>
        <mxCell id="aFBxvqd-sywQT1AkZxLm-273" value="&lt;font style=&quot;font-size: 20px;&quot;&gt;5&lt;/font&gt;" style="text;html=1;align=center;verticalAlign=middle;whiteSpace=wrap;rounded=0;fontSize=20;fontStyle=1;strokeWidth=2;" parent="1" vertex="1">
          <mxGeometry x="823" y="82" width="60" height="30" as="geometry" />
        </mxCell>
        <mxCell id="aFBxvqd-sywQT1AkZxLm-274" value="&lt;font style=&quot;font-size: 20px;&quot;&gt;13&lt;/font&gt;" style="text;html=1;align=center;verticalAlign=middle;whiteSpace=wrap;rounded=0;fontSize=20;fontStyle=1;strokeWidth=2;" parent="1" vertex="1">
          <mxGeometry x="974.4" y="82" width="60" height="30" as="geometry" />
        </mxCell>
        <mxCell id="aFBxvqd-sywQT1AkZxLm-275" value="&lt;font style=&quot;font-size: 20px;&quot;&gt;8&lt;/font&gt;" style="text;html=1;align=center;verticalAlign=middle;whiteSpace=wrap;rounded=0;fontSize=20;fontStyle=1;strokeWidth=2;" parent="1" vertex="1">
          <mxGeometry x="892.9999999999999" y="82" width="60" height="30" as="geometry" />
        </mxCell>
        <mxCell id="aFBxvqd-sywQT1AkZxLm-276" value="&lt;font style=&quot;font-size: 20px;&quot;&gt;5&lt;/font&gt;" style="text;html=1;align=center;verticalAlign=middle;whiteSpace=wrap;rounded=0;fillColor=#ffe6cc;strokeColor=#d79b00;fontSize=20;fontStyle=1;strokeWidth=2;" parent="1" vertex="1">
          <mxGeometry x="822" y="151" width="60" height="30" as="geometry" />
        </mxCell>
        <mxCell id="aFBxvqd-sywQT1AkZxLm-277" value="&lt;font style=&quot;font-size: 20px;&quot;&gt;0&lt;/font&gt;" style="text;html=1;align=center;verticalAlign=middle;whiteSpace=wrap;rounded=0;fontSize=20;fontStyle=1;strokeWidth=2;" parent="1" vertex="1">
          <mxGeometry x="894.9999999999999" y="152" width="60" height="30" as="geometry" />
        </mxCell>
        <mxCell id="aFBxvqd-sywQT1AkZxLm-278" value="&lt;font style=&quot;font-size: 20px;&quot;&gt;13&lt;/font&gt;" style="text;html=1;align=center;verticalAlign=middle;whiteSpace=wrap;rounded=0;fillColor=#dae8fc;strokeColor=#6c8ebf;fontSize=20;fontStyle=1;strokeWidth=2;" parent="1" vertex="1">
          <mxGeometry x="969.9999999999999" y="152" width="60" height="30" as="geometry" />
        </mxCell>
        <mxCell id="aFBxvqd-sywQT1AkZxLm-279" value="&lt;font style=&quot;font-size: 20px;&quot;&gt;5&lt;/font&gt;" style="text;html=1;align=center;verticalAlign=middle;whiteSpace=wrap;rounded=0;fontSize=20;fontStyle=1;strokeWidth=2;" parent="1" vertex="1">
          <mxGeometry x="825.4" y="340" width="60" height="30" as="geometry" />
        </mxCell>
        <mxCell id="aFBxvqd-sywQT1AkZxLm-280" value="&lt;font style=&quot;font-size: 20px;&quot;&gt;12&lt;/font&gt;" style="text;html=1;align=center;verticalAlign=middle;whiteSpace=wrap;rounded=0;fontSize=20;fontStyle=1;strokeWidth=2;" parent="1" vertex="1">
          <mxGeometry x="976.8000000000001" y="340" width="60" height="30" as="geometry" />
        </mxCell>
        <mxCell id="aFBxvqd-sywQT1AkZxLm-281" value="&lt;font style=&quot;font-size: 20px;&quot;&gt;7&lt;/font&gt;" style="text;html=1;align=center;verticalAlign=middle;whiteSpace=wrap;rounded=0;fontSize=20;fontStyle=1;strokeWidth=2;" parent="1" vertex="1">
          <mxGeometry x="895.4" y="340" width="60" height="30" as="geometry" />
        </mxCell>
        <mxCell id="aFBxvqd-sywQT1AkZxLm-282" value="&lt;font style=&quot;font-size: 20px;&quot;&gt;9&lt;/font&gt;" style="text;html=1;align=center;verticalAlign=middle;whiteSpace=wrap;rounded=0;fillColor=#ffe6cc;strokeColor=#d79b00;fontSize=20;fontStyle=1;strokeWidth=2;" parent="1" vertex="1">
          <mxGeometry x="824.4" y="409" width="60" height="30" as="geometry" />
        </mxCell>
        <mxCell id="aFBxvqd-sywQT1AkZxLm-283" value="&lt;font style=&quot;font-size: 20px;&quot;&gt;0&lt;/font&gt;" style="text;html=1;align=center;verticalAlign=middle;whiteSpace=wrap;rounded=0;fontSize=20;fontStyle=1;strokeWidth=2;" parent="1" vertex="1">
          <mxGeometry x="897.4" y="410" width="60" height="30" as="geometry" />
        </mxCell>
        <mxCell id="aFBxvqd-sywQT1AkZxLm-284" value="&lt;font style=&quot;font-size: 20px;&quot;&gt;16&lt;/font&gt;" style="text;html=1;align=center;verticalAlign=middle;whiteSpace=wrap;rounded=0;fillColor=#dae8fc;strokeColor=#6c8ebf;fontSize=20;fontStyle=1;strokeWidth=2;" parent="1" vertex="1">
          <mxGeometry x="972.4" y="410" width="60" height="30" as="geometry" />
        </mxCell>
        <mxCell id="aFBxvqd-sywQT1AkZxLm-291" value="&lt;font style=&quot;font-size: 20px;&quot;&gt;3&lt;/font&gt;" style="text;html=1;align=center;verticalAlign=middle;whiteSpace=wrap;rounded=0;fontSize=20;fontStyle=1;strokeWidth=2;" parent="1" vertex="1">
          <mxGeometry x="525" y="567" width="60" height="30" as="geometry" />
        </mxCell>
        <mxCell id="aFBxvqd-sywQT1AkZxLm-292" value="&lt;font style=&quot;font-size: 20px;&quot;&gt;4&lt;/font&gt;" style="text;html=1;align=center;verticalAlign=middle;whiteSpace=wrap;rounded=0;fontSize=20;fontStyle=1;strokeWidth=2;" parent="1" vertex="1">
          <mxGeometry x="676.4000000000001" y="567" width="60" height="30" as="geometry" />
        </mxCell>
        <mxCell id="aFBxvqd-sywQT1AkZxLm-293" value="&lt;font style=&quot;font-size: 20px;&quot;&gt;1&lt;/font&gt;" style="text;html=1;align=center;verticalAlign=middle;whiteSpace=wrap;rounded=0;fontSize=20;fontStyle=1;strokeWidth=2;" parent="1" vertex="1">
          <mxGeometry x="595" y="567" width="60" height="30" as="geometry" />
        </mxCell>
        <mxCell id="aFBxvqd-sywQT1AkZxLm-294" value="&lt;font style=&quot;font-size: 20px;&quot;&gt;10&lt;/font&gt;" style="text;html=1;align=center;verticalAlign=middle;whiteSpace=wrap;rounded=0;fillColor=#ffe6cc;strokeColor=#d79b00;fontSize=20;fontStyle=1;strokeWidth=2;" parent="1" vertex="1">
          <mxGeometry x="524" y="636" width="60" height="30" as="geometry" />
        </mxCell>
        <mxCell id="aFBxvqd-sywQT1AkZxLm-295" value="&lt;font style=&quot;font-size: 20px;&quot;&gt;0&lt;/font&gt;" style="text;html=1;align=center;verticalAlign=middle;whiteSpace=wrap;rounded=0;fontSize=20;fontStyle=1;strokeWidth=2;" parent="1" vertex="1">
          <mxGeometry x="597" y="637" width="60" height="30" as="geometry" />
        </mxCell>
        <mxCell id="aFBxvqd-sywQT1AkZxLm-296" value="&lt;font style=&quot;font-size: 20px;&quot;&gt;11&lt;/font&gt;" style="text;html=1;align=center;verticalAlign=middle;whiteSpace=wrap;rounded=0;fillColor=#dae8fc;strokeColor=#6c8ebf;fontSize=20;fontStyle=1;strokeWidth=2;" parent="1" vertex="1">
          <mxGeometry x="672" y="637" width="60" height="30" as="geometry" />
        </mxCell>
        <mxCell id="aFBxvqd-sywQT1AkZxLm-297" value="&lt;font style=&quot;font-size: 20px;&quot;&gt;4&lt;/font&gt;" style="text;html=1;align=center;verticalAlign=middle;whiteSpace=wrap;rounded=0;fontSize=20;fontStyle=1;strokeWidth=2;" parent="1" vertex="1">
          <mxGeometry x="828" y="566" width="60" height="30" as="geometry" />
        </mxCell>
        <mxCell id="aFBxvqd-sywQT1AkZxLm-298" value="&lt;font style=&quot;font-size: 20px;&quot;&gt;9&lt;/font&gt;" style="text;html=1;align=center;verticalAlign=middle;whiteSpace=wrap;rounded=0;fontSize=20;fontStyle=1;strokeWidth=2;" parent="1" vertex="1">
          <mxGeometry x="979.4" y="566" width="60" height="30" as="geometry" />
        </mxCell>
        <mxCell id="aFBxvqd-sywQT1AkZxLm-299" value="&lt;font style=&quot;font-size: 20px;&quot;&gt;5&lt;/font&gt;" style="text;html=1;align=center;verticalAlign=middle;whiteSpace=wrap;rounded=0;fontSize=20;fontStyle=1;strokeWidth=2;" parent="1" vertex="1">
          <mxGeometry x="897.9999999999999" y="566" width="60" height="30" as="geometry" />
        </mxCell>
        <mxCell id="aFBxvqd-sywQT1AkZxLm-300" value="&lt;font style=&quot;font-size: 20px;&quot;&gt;11&lt;/font&gt;" style="text;html=1;align=center;verticalAlign=middle;whiteSpace=wrap;rounded=0;fillColor=#ffe6cc;strokeColor=#d79b00;fontSize=20;fontStyle=1;strokeWidth=2;" parent="1" vertex="1">
          <mxGeometry x="827" y="635" width="60" height="30" as="geometry" />
        </mxCell>
        <mxCell id="aFBxvqd-sywQT1AkZxLm-301" value="&lt;font style=&quot;font-size: 20px;&quot;&gt;0&lt;/font&gt;" style="text;html=1;align=center;verticalAlign=middle;whiteSpace=wrap;rounded=0;fontSize=20;fontStyle=1;strokeWidth=2;" parent="1" vertex="1">
          <mxGeometry x="899.9999999999999" y="636" width="60" height="30" as="geometry" />
        </mxCell>
        <mxCell id="aFBxvqd-sywQT1AkZxLm-302" value="&lt;font style=&quot;font-size: 20px;&quot;&gt;16&lt;/font&gt;" style="text;html=1;align=center;verticalAlign=middle;whiteSpace=wrap;rounded=0;fillColor=#dae8fc;strokeColor=#6c8ebf;fontSize=20;fontStyle=1;strokeWidth=2;" parent="1" vertex="1">
          <mxGeometry x="974.9999999999999" y="636" width="60" height="30" as="geometry" />
        </mxCell>
        <mxCell id="aFBxvqd-sywQT1AkZxLm-303" value="&lt;font style=&quot;font-size: 20px;&quot;&gt;12&lt;/font&gt;" style="text;html=1;align=center;verticalAlign=middle;whiteSpace=wrap;rounded=0;fontSize=20;fontStyle=1;strokeWidth=2;" parent="1" vertex="1">
          <mxGeometry x="1117.4" y="364" width="60" height="30" as="geometry" />
        </mxCell>
        <mxCell id="aFBxvqd-sywQT1AkZxLm-304" value="&lt;font style=&quot;font-size: 20px;&quot;&gt;15&lt;/font&gt;" style="text;html=1;align=center;verticalAlign=middle;whiteSpace=wrap;rounded=0;fontSize=20;fontStyle=1;strokeWidth=2;" parent="1" vertex="1">
          <mxGeometry x="1268.8" y="364" width="60" height="30" as="geometry" />
        </mxCell>
        <mxCell id="aFBxvqd-sywQT1AkZxLm-305" value="&lt;font style=&quot;font-size: 20px;&quot;&gt;3&lt;/font&gt;" style="text;html=1;align=center;verticalAlign=middle;whiteSpace=wrap;rounded=0;fontSize=20;fontStyle=1;strokeWidth=2;" parent="1" vertex="1">
          <mxGeometry x="1187.4" y="364" width="60" height="30" as="geometry" />
        </mxCell>
        <mxCell id="aFBxvqd-sywQT1AkZxLm-306" value="&lt;font style=&quot;font-size: 20px;&quot;&gt;16&lt;/font&gt;" style="text;html=1;align=center;verticalAlign=middle;whiteSpace=wrap;rounded=0;fillColor=#ffe6cc;strokeColor=#d79b00;fontSize=20;fontStyle=1;strokeWidth=2;" parent="1" vertex="1">
          <mxGeometry x="1116.4" y="433" width="60" height="30" as="geometry" />
        </mxCell>
        <mxCell id="aFBxvqd-sywQT1AkZxLm-307" value="&lt;font style=&quot;font-size: 20px;&quot;&gt;0&lt;/font&gt;" style="text;html=1;align=center;verticalAlign=middle;whiteSpace=wrap;rounded=0;fontSize=20;fontStyle=1;strokeWidth=2;" parent="1" vertex="1">
          <mxGeometry x="1189.4" y="434" width="60" height="30" as="geometry" />
        </mxCell>
        <mxCell id="aFBxvqd-sywQT1AkZxLm-308" value="&lt;font style=&quot;font-size: 20px;&quot;&gt;19&lt;/font&gt;" style="text;html=1;align=center;verticalAlign=middle;whiteSpace=wrap;rounded=0;fillColor=#dae8fc;strokeColor=#6c8ebf;fontSize=20;fontStyle=1;strokeWidth=2;" parent="1" vertex="1">
          <mxGeometry x="1264.4" y="434" width="60" height="30" as="geometry" />
        </mxCell>
        <mxCell id="aFBxvqd-sywQT1AkZxLm-309" value="&lt;font style=&quot;font-size: 20px;&quot;&gt;13&lt;/font&gt;" style="text;html=1;align=center;verticalAlign=middle;whiteSpace=wrap;rounded=0;fontSize=20;fontStyle=1;strokeWidth=2;" parent="1" vertex="1">
          <mxGeometry x="1102.4000000000003" y="179" width="60" height="30" as="geometry" />
        </mxCell>
        <mxCell id="aFBxvqd-sywQT1AkZxLm-310" value="&lt;font style=&quot;font-size: 20px;&quot;&gt;15&lt;/font&gt;" style="text;html=1;align=center;verticalAlign=middle;whiteSpace=wrap;rounded=0;fontSize=20;fontStyle=1;strokeWidth=2;" parent="1" vertex="1">
          <mxGeometry x="1253.8000000000002" y="179" width="60" height="30" as="geometry" />
        </mxCell>
        <mxCell id="aFBxvqd-sywQT1AkZxLm-311" value="&lt;font style=&quot;font-size: 20px;&quot;&gt;2&lt;/font&gt;" style="text;html=1;align=center;verticalAlign=middle;whiteSpace=wrap;rounded=0;fontSize=20;fontStyle=1;strokeWidth=2;" parent="1" vertex="1">
          <mxGeometry x="1172.4000000000003" y="179" width="60" height="30" as="geometry" />
        </mxCell>
        <mxCell id="aFBxvqd-sywQT1AkZxLm-312" value="&lt;font style=&quot;font-size: 20px;&quot;&gt;13&lt;/font&gt;" style="text;html=1;align=center;verticalAlign=middle;whiteSpace=wrap;rounded=0;fillColor=#ffe6cc;strokeColor=#d79b00;fontSize=20;fontStyle=1;strokeWidth=2;" parent="1" vertex="1">
          <mxGeometry x="1101.4000000000003" y="248" width="60" height="30" as="geometry" />
        </mxCell>
        <mxCell id="aFBxvqd-sywQT1AkZxLm-313" value="&lt;font style=&quot;font-size: 20px;&quot;&gt;0&lt;/font&gt;" style="text;html=1;align=center;verticalAlign=middle;whiteSpace=wrap;rounded=0;fontSize=20;fontStyle=1;strokeWidth=2;" parent="1" vertex="1">
          <mxGeometry x="1174.4000000000003" y="249" width="60" height="30" as="geometry" />
        </mxCell>
        <mxCell id="aFBxvqd-sywQT1AkZxLm-314" value="&lt;font style=&quot;font-size: 20px;&quot;&gt;15&lt;/font&gt;" style="text;html=1;align=center;verticalAlign=middle;whiteSpace=wrap;rounded=0;fillColor=#dae8fc;strokeColor=#6c8ebf;fontSize=20;fontStyle=1;strokeWidth=2;" parent="1" vertex="1">
          <mxGeometry x="1249.4000000000003" y="249" width="60" height="30" as="geometry" />
        </mxCell>
        <mxCell id="aFBxvqd-sywQT1AkZxLm-315" value="&lt;font style=&quot;font-size: 20px;&quot;&gt;15&lt;/font&gt;" style="text;html=1;align=center;verticalAlign=middle;whiteSpace=wrap;rounded=0;fontSize=20;fontStyle=1;strokeWidth=2;" parent="1" vertex="1">
          <mxGeometry x="1381.0000000000002" y="108.5" width="60" height="30" as="geometry" />
        </mxCell>
        <mxCell id="aFBxvqd-sywQT1AkZxLm-316" value="&lt;font style=&quot;font-size: 20px;&quot;&gt;19&lt;/font&gt;" style="text;html=1;align=center;verticalAlign=middle;whiteSpace=wrap;rounded=0;fontSize=20;fontStyle=1;strokeWidth=2;" parent="1" vertex="1">
          <mxGeometry x="1532.4" y="108.5" width="60" height="30" as="geometry" />
        </mxCell>
        <mxCell id="aFBxvqd-sywQT1AkZxLm-317" value="&lt;font style=&quot;font-size: 20px;&quot;&gt;4&lt;/font&gt;" style="text;html=1;align=center;verticalAlign=middle;whiteSpace=wrap;rounded=0;fontSize=20;fontStyle=1;strokeWidth=2;" parent="1" vertex="1">
          <mxGeometry x="1451.0000000000002" y="108.5" width="60" height="30" as="geometry" />
        </mxCell>
        <mxCell id="aFBxvqd-sywQT1AkZxLm-318" value="&lt;font style=&quot;font-size: 20px;&quot;&gt;15&lt;/font&gt;" style="text;html=1;align=center;verticalAlign=middle;whiteSpace=wrap;rounded=0;fillColor=#ffe6cc;strokeColor=#d79b00;fontSize=20;fontStyle=1;strokeWidth=2;" parent="1" vertex="1">
          <mxGeometry x="1380.0000000000002" y="177.5" width="60" height="30" as="geometry" />
        </mxCell>
        <mxCell id="aFBxvqd-sywQT1AkZxLm-319" value="&lt;font style=&quot;font-size: 20px;&quot;&gt;0&lt;/font&gt;" style="text;html=1;align=center;verticalAlign=middle;whiteSpace=wrap;rounded=0;fontSize=20;fontStyle=1;strokeWidth=2;" parent="1" vertex="1">
          <mxGeometry x="1453.0000000000002" y="178.5" width="60" height="30" as="geometry" />
        </mxCell>
        <mxCell id="aFBxvqd-sywQT1AkZxLm-320" value="&lt;font style=&quot;font-size: 20px;&quot;&gt;19&lt;/font&gt;" style="text;html=1;align=center;verticalAlign=middle;whiteSpace=wrap;rounded=0;fillColor=#dae8fc;strokeColor=#6c8ebf;fontSize=20;fontStyle=1;strokeWidth=2;" parent="1" vertex="1">
          <mxGeometry x="1528.0000000000002" y="178.5" width="60" height="30" as="geometry" />
        </mxCell>
        <mxCell id="aFBxvqd-sywQT1AkZxLm-321" value="&lt;font style=&quot;font-size: 20px;&quot;&gt;19&lt;/font&gt;" style="text;html=1;align=center;verticalAlign=middle;whiteSpace=wrap;rounded=0;fontSize=20;fontStyle=1;strokeWidth=2;" parent="1" vertex="1">
          <mxGeometry x="1641" y="108.5" width="60" height="30" as="geometry" />
        </mxCell>
        <mxCell id="aFBxvqd-sywQT1AkZxLm-322" value="&lt;font style=&quot;font-size: 20px;&quot;&gt;21&lt;/font&gt;" style="text;html=1;align=center;verticalAlign=middle;whiteSpace=wrap;rounded=0;fontSize=20;fontStyle=1;strokeWidth=2;" parent="1" vertex="1">
          <mxGeometry x="1792.3999999999996" y="108.5" width="60" height="30" as="geometry" />
        </mxCell>
        <mxCell id="aFBxvqd-sywQT1AkZxLm-323" value="&lt;font style=&quot;font-size: 20px;&quot;&gt;2&lt;/font&gt;" style="text;html=1;align=center;verticalAlign=middle;whiteSpace=wrap;rounded=0;fontSize=20;fontStyle=1;strokeWidth=2;" parent="1" vertex="1">
          <mxGeometry x="1711" y="108.5" width="60" height="30" as="geometry" />
        </mxCell>
        <mxCell id="aFBxvqd-sywQT1AkZxLm-324" value="&lt;font style=&quot;font-size: 20px;&quot;&gt;19&lt;/font&gt;" style="text;html=1;align=center;verticalAlign=middle;whiteSpace=wrap;rounded=0;fillColor=#ffe6cc;strokeColor=#d79b00;fontSize=20;fontStyle=1;strokeWidth=2;" parent="1" vertex="1">
          <mxGeometry x="1651" y="174.5" width="60" height="30" as="geometry" />
        </mxCell>
        <mxCell id="aFBxvqd-sywQT1AkZxLm-325" value="&lt;font style=&quot;font-size: 20px;&quot;&gt;0&lt;/font&gt;" style="text;html=1;align=center;verticalAlign=middle;whiteSpace=wrap;rounded=0;fontSize=20;fontStyle=1;strokeWidth=2;" parent="1" vertex="1">
          <mxGeometry x="1713" y="178.5" width="60" height="30" as="geometry" />
        </mxCell>
        <mxCell id="aFBxvqd-sywQT1AkZxLm-326" value="&lt;font style=&quot;font-size: 20px;&quot;&gt;21&lt;/font&gt;" style="text;html=1;align=center;verticalAlign=middle;whiteSpace=wrap;rounded=0;fillColor=#dae8fc;strokeColor=#6c8ebf;fontSize=20;fontStyle=1;strokeWidth=2;" parent="1" vertex="1">
          <mxGeometry x="1788" y="178.5" width="60" height="30" as="geometry" />
        </mxCell>
        <mxCell id="xbFhhirg2wfCAPPnJ9n--1" style="edgeStyle=orthogonalEdgeStyle;rounded=0;orthogonalLoop=1;jettySize=auto;html=1;exitX=0.5;exitY=1;exitDx=0;exitDy=0;fontSize=20;fontStyle=1;strokeWidth=2;" parent="1" source="aFBxvqd-sywQT1AkZxLm-231" target="aFBxvqd-sywQT1AkZxLm-231" edge="1">
          <mxGeometry relative="1" as="geometry" />
        </mxCell>
        <mxCell id="x0Jqpz3WeT6V8uezxAi2-1" value="&lt;font style=&quot;font-size: 20px;&quot;&gt;12&lt;/font&gt;" style="text;html=1;align=center;verticalAlign=middle;whiteSpace=wrap;rounded=0;fontSize=20;fontStyle=1;strokeWidth=2;" vertex="1" parent="1">
          <mxGeometry x="1101" y="-83" width="60" height="30" as="geometry" />
        </mxCell>
        <mxCell id="x0Jqpz3WeT6V8uezxAi2-2" value="&lt;font style=&quot;font-size: 20px;&quot;&gt;13&lt;/font&gt;" style="text;html=1;align=center;verticalAlign=middle;whiteSpace=wrap;rounded=0;fontSize=20;fontStyle=1;strokeWidth=2;" vertex="1" parent="1">
          <mxGeometry x="1252.4" y="-83" width="60" height="30" as="geometry" />
        </mxCell>
        <mxCell id="x0Jqpz3WeT6V8uezxAi2-3" value="&lt;font style=&quot;font-size: 20px;&quot;&gt;1&lt;/font&gt;" style="text;html=1;align=center;verticalAlign=middle;whiteSpace=wrap;rounded=0;fontSize=20;fontStyle=1;strokeWidth=2;" vertex="1" parent="1">
          <mxGeometry x="1171.0000000000002" y="-83" width="60" height="30" as="geometry" />
        </mxCell>
        <mxCell id="x0Jqpz3WeT6V8uezxAi2-4" value="&lt;font style=&quot;font-size: 20px;&quot;&gt;14&lt;/font&gt;" style="text;html=1;align=center;verticalAlign=middle;whiteSpace=wrap;rounded=0;fillColor=#ffe6cc;strokeColor=#d79b00;fontSize=20;fontStyle=1;strokeWidth=2;" vertex="1" parent="1">
          <mxGeometry x="1100" y="-14" width="60" height="30" as="geometry" />
        </mxCell>
        <mxCell id="x0Jqpz3WeT6V8uezxAi2-5" value="&lt;font style=&quot;font-size: 20px;&quot;&gt;0&lt;/font&gt;" style="text;html=1;align=center;verticalAlign=middle;whiteSpace=wrap;rounded=0;fontSize=20;fontStyle=1;strokeWidth=2;" vertex="1" parent="1">
          <mxGeometry x="1173.0000000000002" y="-13" width="60" height="30" as="geometry" />
        </mxCell>
        <mxCell id="x0Jqpz3WeT6V8uezxAi2-6" value="&lt;font style=&quot;font-size: 20px;&quot;&gt;15&lt;/font&gt;" style="text;html=1;align=center;verticalAlign=middle;whiteSpace=wrap;rounded=0;fillColor=#dae8fc;strokeColor=#6c8ebf;fontSize=20;fontStyle=1;strokeWidth=2;" vertex="1" parent="1">
          <mxGeometry x="1248.0000000000002" y="-13" width="60" height="30" as="geometry" />
        </mxCell>
        <mxCell id="x0Jqpz3WeT6V8uezxAi2-7" value="LS" style="text;html=1;align=center;verticalAlign=middle;whiteSpace=wrap;rounded=0;fontSize=20;fontStyle=1;strokeWidth=2;" vertex="1" parent="1">
          <mxGeometry x="199.79999999999998" y="121.5" width="60" height="30" as="geometry" />
        </mxCell>
        <mxCell id="x0Jqpz3WeT6V8uezxAi2-8" value="LF" style="text;html=1;align=center;verticalAlign=middle;whiteSpace=wrap;rounded=0;fontSize=20;fontStyle=1;strokeWidth=2;" vertex="1" parent="1">
          <mxGeometry x="346.79999999999995" y="121.5" width="60" height="30" as="geometry" />
        </mxCell>
      </root>
    </mxGraphModel>
  </diagram>
</mxfile>
